<svg width="220" height="78" fill="none" xmlns="http://www.w3.org/2000/svg"><path fill-rule="evenodd" clip-rule="evenodd" d="M5.557 69.44v5.785H4.444v-4.959H1.941v4.959H.83V69.44h4.728zm211.656 3.03c-1.113-.275-2.503 0-2.503 1.102 0 .826.556 1.102.834 1.102.835 0 1.391-.551 1.669-.827V72.47zm.834 1.377c0 .552 0 1.102.278 1.378h-1.112v-.551c-.278.275-1.113.826-1.947.826-1.113 0-1.669-.826-1.669-1.653 0-1.377 1.391-2.203 3.616-2.203v-.276c0-.275-.278-1.102-1.391-1.102-.556 0-1.112 0-1.669.276v-.551c.279-.551 1.113-.551 1.669-.551 1.947 0 2.225 1.102 2.225 2.204v2.203zm-8.9-1.928h.556c.835 0 1.669-.275 1.669-.826 0-.551-.556-.827-1.39-.827h-.835v1.653zm0 2.755h.835c.556 0 1.668 0 1.668-1.102 0-.826-.834-.826-1.947-.826h-.556v1.928zm-1.112-5.234h1.947c.834 0 2.503.275 2.503 1.377 0 .827-.557 1.378-1.113 1.378.835.275 1.391.55 1.391 1.377 0 1.653-1.947 1.928-3.06 1.928-.556 0-1.39 0-1.668-.275V69.44zm-2.782 3.03c-1.112-.275-2.503 0-2.503 1.102 0 .826.556 1.102 1.113 1.102.834 0 1.112-.551 1.39-.827V72.47zm1.113 1.377v1.378h-.835v-.551h-.278c-.278.275-.834.826-1.668.826-1.113 0-1.669-.826-1.669-1.653 0-1.377 1.112-2.203 3.337-2.203v-.276c0-.275 0-1.102-1.39-1.102-.557 0-1.113 0-1.391.276l-.278-.551c.556-.551 1.112-.551 1.947-.551 1.669 0 2.225 1.102 2.225 2.204v2.203zm-8.9-4.407v2.48h.278l2.225-2.48h1.112l-2.503 2.755c1.113 0 1.669.55 1.947 1.653.278.55.278 1.101.556 1.377h-1.112l-.556-1.102c-.278-.826-.835-1.377-1.669-1.377h-.278v2.479h-1.113V69.44h1.113zm-18.357 2.48c0-.827-.278-1.93-1.39-1.93-1.113 0-1.669 1.103-1.669 1.93h3.059zm-3.059.55c0 1.653.834 2.204 1.947 2.204.834 0 1.112-.276 1.668-.276v.827c-.278 0-.834.275-1.946.275-1.669 0-2.782-1.102-2.782-3.03 0-1.653 1.113-3.03 2.782-3.03 1.946 0 2.503 1.653 2.503 2.755v.275h-4.172zm-6.397-3.03v4.958c.278-.826.556-1.101 1.112-1.928l1.669-3.03h1.391v5.785h-1.113v-4.683l-.834 1.653c-.556 1.102-1.391 2.204-1.947 3.03h-1.113V69.44h.835zm-5.563 0v2.48h.278l2.225-2.48h1.113l-2.503 2.755c.834 0 1.39.55 1.947 1.653.278.55.278 1.101.556 1.377h-1.113l-.556-1.102c-.278-.826-.834-1.377-1.669-1.377h-.278v2.479h-1.112V69.44h1.112zm-2.225 5.785c-.278 0-1.112.275-1.669.275-1.946 0-3.059-1.102-3.059-3.03 0-1.928 1.391-3.03 3.059-3.03.835 0 1.391 0 1.669.275l-.278.827c-.278-.276-.834-.276-1.391-.276-1.112 0-1.946.827-1.946 2.204 0 1.377.834 2.204 1.946 2.204.557 0 1.113-.276 1.391-.276l.278.827zm-6.675-3.306c0-.826-.278-1.928-1.391-1.928-1.112 0-1.668 1.102-1.668 1.928h3.059zm-3.059.551c0 1.653.834 2.204 1.947 2.204.834 0 1.39-.276 1.668-.276l.279.827c-.557 0-1.113.275-1.947.275-1.947 0-3.06-1.102-3.06-3.03 0-1.653 1.113-3.03 2.781-3.03 1.947 0 2.504 1.653 2.504 2.755v.275h-4.172zm-5.841-3.03v1.928c0 .827.278 1.378 1.113 1.378.556 0 1.112-.276 1.39-.551V69.44h1.113v6.06h-1.113v-2.479c-.278.276-1.112.551-1.669.551-1.112 0-1.946-.55-1.946-1.928V69.44h1.112zm-6.397 0v2.48c0 .826 0 1.652-.278 2.478h.278c.278-.826.556-1.101.834-1.928l1.947-3.03h1.113v5.785h-1.113v-2.48c0-.826 0-1.377.278-2.203-.556.55-.834 1.102-1.112 1.653-.556 1.102-1.113 2.204-1.947 3.03h-1.112V69.44h1.112zm-2.781 0v5.785h-1.113v-4.959h-1.947v1.653c0 1.653-.278 2.755-.834 3.03-.278.276-.556.551-1.113.551l-.278-.826c.278 0 .557-.276.557-.276.556-.55.556-1.377.556-2.479V69.44h4.172zm-9.457 2.48h.835c.834 0 1.39-.276 1.39-.827 0-.551-.278-.827-1.39-.827h-.835v1.653zm0 2.754h.835c.556 0 1.669 0 1.669-1.102 0-.826-.835-.826-1.669-.826h-.835v1.928zm-1.112-5.234h1.947c.834 0 2.503.275 2.503 1.377 0 .827-.556 1.378-1.113 1.378.835.275 1.391.55 1.391 1.377 0 1.653-1.947 1.928-3.059 1.928-.557 0-1.391 0-1.669-.275V69.44zm-2.503 3.03c-1.391-.275-2.503 0-2.503 1.102 0 .826.278 1.102.834 1.102.834 0 1.391-.551 1.391-.827 0-.275.278-.275.278-.55v-.827zm.834 1.377c0 .552 0 1.102.278 1.378h-1.112v-.551c-.557.275-1.113.826-1.947.826-1.113 0-1.669-.826-1.669-1.653 0-1.377 1.113-2.203 3.338-2.203v-.276c0-.275 0-1.102-1.113-1.102-.556 0-1.112 0-1.669.276l-.278-.551c.556-.551 1.391-.551 1.947-.551 1.947 0 2.225 1.102 2.225 2.204v2.203zm-15.575-2.479c0 .551-.278 1.378-.556 2.204 0 .275-.279.551-.279 1.102h2.504v-4.408h-1.669v1.102zm2.781-1.928v5.234h.556v2.48h-.834v-1.93h-4.172v1.93h-.834v-2.48h.556c.278-.551.556-.827.556-1.377.278-.551.278-1.378.278-2.204V69.44h3.894zm-10.012 0v2.48c0 .826-.279 1.652-.279 2.478.557-.826.557-1.101 1.113-1.928l1.669-3.03h1.39v5.785h-1.112v-4.683l-.835 1.653c-.556 1.102-1.39 2.204-1.946 3.03h-1.113V69.44h1.113zm-2.225 0v.826h-2.504v4.959h-.834V69.44h3.338zm-11.682 0v4.958c.278-.826.556-1.101.835-1.928l1.946-3.03h1.113v5.785h-.835v-4.683c-.556.55-.556 1.102-1.112 1.653-.556 1.102-1.112 2.204-1.669 3.03h-1.39V69.44h1.112zm-5.84 2.48c0-.827-.279-1.93-1.391-1.93-1.113 0-1.67 1.103-1.67 1.93h3.06zm-3.06.55c0 1.653.834 2.204 1.947 2.204.834 0 1.112-.276 1.669-.276v.827c-.278 0-.835.275-1.947.275-1.67 0-2.782-1.102-2.782-3.03 0-1.653 1.113-3.03 2.782-3.03 1.947 0 2.503 1.653 2.503 2.755v.275H79.26zm-2.503-3.03v5.785h-.835V69.44h.835zm-5.007 5.234h.557c.834 0 1.668-.276 1.668-1.377 0-.827-.834-1.102-1.668-1.102h-.557v2.479zm0-5.234v1.928h.835c1.112 0 2.503.551 2.503 1.929 0 .826-.278 1.102-.556 1.377-.556.55-1.669.826-2.503.826-.557 0-1.113 0-1.391-.275V69.44h1.112zm-6.675 0v2.48h2.782v-2.48h1.112v5.785h-1.112v-2.48h-2.782v2.48h-1.112V69.44h1.112zm-6.675 0v2.48h2.782v-2.48h1.112v5.785h-1.112v-2.48H58.4v2.48h-.834V69.44h.834zm-3.337 2.48c0-.827-.278-1.93-1.39-1.93-1.113 0-1.67 1.103-1.67 1.93h3.06zm-3.06.55c0 1.653.835 2.204 1.947 2.204.835 0 1.39-.276 1.669-.276l.278.827c-.556 0-1.112.275-1.947.275-1.947 0-3.06-1.102-3.06-3.03 0-1.653 1.113-3.03 2.782-3.03 1.947 0 2.503 1.653 2.503 2.755v.275h-4.172zm-2.225-3.03v5.785h-1.112v-4.959H46.72v1.653c0 1.653-.278 2.755-.834 3.03-.279.276-.835.551-1.391.551v-.826c.278 0 .556-.276.556-.276.556-.55.556-1.377.556-2.479V69.44h4.172zm-12.237 0v4.959h1.947V69.44H40.6v4.959h1.947V69.44h1.112v5.785h-7.23V69.44h1.112zm-2.782 0v5.785h-1.112V69.44h1.112zm-5.284 5.234h.556c.834 0 1.947-.276 1.947-1.377 0-.827-.834-1.102-1.669-1.102h-.834v2.479zm0-5.234v1.928h.834c1.39 0 2.503.551 2.503 1.929 0 .826 0 1.102-.556 1.377-.556.55-1.669.826-2.225.826s-1.112 0-1.669-.275V69.44h1.113zm-8.622 0h1.39l.835 3.03c.278.276.556 1.102.556 1.653.278-.55.556-1.377.834-2.204l.835-2.479h1.39l.279 5.785h-.835l-.278-2.755v-1.928c-.278.55-.278.826-.834 1.928l-1.113 2.755h-.556l-1.113-2.755c-.278-.55-.556-1.377-.556-1.928 0 .55-.278 1.377-.278 1.928v2.755h-1.112l.556-5.785zm-6.119 3.03c0 1.377.834 2.204 1.947 2.204.834 0 1.669-.827 1.669-2.204 0-1.102-.557-2.204-1.67-2.204-1.39 0-1.946 1.102-1.946 2.204zm4.728 0c0 2.204-1.669 3.03-3.06 3.03-1.39 0-2.78-1.102-2.78-3.03 0-1.928 1.39-3.03 3.059-3.03 1.669 0 2.781 1.102 2.781 3.03zm-11.126.551v.276c.278.826.834 1.377 1.669 1.377 1.112 0 1.668-.827 1.668-2.204 0-1.377-.556-2.204-1.668-2.204-.835 0-1.39.551-1.669 1.378v1.376zm-1.113-1.653V69.44h.835l.278 1.102c.278-.827 1.113-1.102 1.947-1.102 1.39 0 2.503 1.102 2.503 2.755 0 2.204-1.39 3.305-2.503 3.305-.834 0-1.669-.275-1.947-.826v3.03H7.224v-6.336zm107.912 1.653v.276c.278.826.834 1.377 1.668 1.377 1.113 0 1.669-.827 1.669-2.204 0-1.377-.556-2.204-1.669-2.204-.834 0-1.39.551-1.668 1.378v1.376zm-1.113-1.653V69.44h.834v1.102c.557-.827 1.113-1.102 2.225-1.102 1.391 0 2.504 1.102 2.504 2.755 0 2.204-1.391 3.305-2.782 3.305-.834 0-1.39-.275-1.668-.826v3.03h-1.113v-6.336zm70.922 1.653v.276c.278.826.834 1.377 1.669 1.377 1.112 0 1.947-.827 1.947-2.204 0-1.377-.835-2.204-1.947-2.204-.557 0-1.391.551-1.391 1.378-.278 0-.278.275-.278.275v1.102zm-.834-1.653c0-.826-.279-1.377-.279-1.928h1.113v1.102c.556-.827 1.112-1.102 1.947-1.102 1.669 0 2.503 1.102 2.503 2.755 0 2.204-1.112 3.305-2.503 3.305-.835 0-1.391-.275-1.947-.826v3.03h-.834v-6.336zm6.958-1.928l1.391 3.581c0 .276.278.826.278 1.102.278-.276.278-.826.278-1.102l1.391-3.581h1.112l-1.669 4.132c-.834 2.204-1.39 3.03-1.947 3.857-.556.275-1.112.55-1.39.55l-.278-.826c.278 0 .556-.275.834-.55.278-.276.834-.552 1.113-1.103v-.551l-2.225-5.509h1.112z" fill="#4F575B"/><path fill-rule="evenodd" clip-rule="evenodd" d="M151.576 39.964h-19.469v3.857h19.469c1.112 0 2.225-.276 3.059-.276 1.391-.55 2.225-.826 2.225-1.653 0-.55-.834-1.102-2.225-1.377-.834-.276-1.947-.55-3.059-.55zm66.473 4.683v-11.57c0-10.192-7.232-15.426-21.973-15.426h-2.225c-14.462 0-21.694 5.234-21.694 15.426v9.09h10.847v-9.09c0-3.03 1.391-4.958 4.172-5.785 1.391-.55 4.45-.826 9.179-.826 3.615 0 6.118.275 7.787 1.102 1.947.826 3.06 2.754 3.06 5.51v11.57H170.21v8.263h49.786v-8.264h-1.947zM114.028 21.232c-3.337-2.48-7.231-3.581-11.959-3.581H72.865v9.09h30.038c1.669 0 2.782.276 3.894 1.102 1.113.827 1.391 1.653 1.391 3.03 0 1.102-.278 2.204-1.391 3.03-1.112.827-2.225 1.102-3.894 1.102h-19.19v-4.132H72.864v22.038h10.847v-8.815h18.357c4.728 0 8.622-1.102 11.959-3.581 3.338-2.48 5.007-5.785 5.007-9.642 0-3.856-1.669-7.162-5.007-9.641zm50.62 14.325c1.947 1.928 3.059 3.856 3.059 6.335 0 1.653-.556 3.306-1.668 4.959-1.391 1.928-3.894 3.581-6.676 4.683-2.781.826-5.562 1.377-8.9 1.377h-28.369V30.873h29.482c.834 0 1.669 0 2.503-.275 1.113-.551 1.669-1.102 1.669-1.653 0-.826-.556-1.377-1.669-1.928-.834-.276-1.669-.276-2.503-.276h-29.482v-9.09h28.369c3.338 0 6.119.55 8.9 1.377 3.06 1.102 5.285 2.755 6.676 4.959 1.112 1.377 1.668 3.305 1.668 4.958 0 2.48-1.112 4.683-3.059 6.611zM6.119 41.046c0-.551-.278-2.755-.278-3.581 0-.276.278-.551.278-.827.278-9.09 6.953-16.253 15.575-17.63 2.503-1.929 5.006-3.857 7.788-5.785-1.67-.276-3.338-.551-5.007-.551C10.847 12.672 0 23.966 0 37.465c0 3.03.556 6.06 1.669 8.815.278.55.556 1.377.834 2.203 2.225 4.408 5.563 7.99 10.013 10.469-2.225-3.306-3.06-4.408-2.503-7.714C11.96 33.057 38.382 17.63 50.62 12.672l.556-1.378C52.844 7.438 54.513 3.581 56.182 0 25.866 14.05 11.959 29.476 6.119 41.046z" fill="#065C9C"/><path fill-rule="evenodd" clip-rule="evenodd" d="M47.001 27.568c-.556 1.377-1.112 3.03-1.669 4.407l-.278.827h-.834c-.556.275-1.113.275-1.669.275.278 1.378.556 3.03.556 4.408 0 7.438-4.172 13.774-10.29 16.804l-1.67.826c-26.421 4.959-9.455-21.762 12.795-23.69 1.39-3.857 3.06-8.54 4.728-13.499-16.966 5.785-35.322 22.865-35.879 34.16-.278 4.958 3.894 9.365 10.847 10.192 1.113 0 1.947 0 4.172-.276 11.96-1.653 21.138-11.845 21.138-24.517 0-3.581-.834-6.887-1.947-9.917z" fill="#626D75"/></svg>