<svg width="52" height="17" fill="none" xmlns="http://www.w3.org/2000/svg"><path d="M19.89 16.995a.598.598 0 0 0 .603-.593V.593a.603.603 0 0 0-1.206 0V16.41a.602.602 0 0 0 .603.585zm31.502 0a.598.598 0 0 0 .603-.593v-5.28c.068-1.788-.57-3.386-1.97-4.202-2.014-1.203-4.36-.379-4.36-.379s-.815.321-.5.882c.238.42.798.148.798.148s1.997-.717 3.62.42c.891.626 1.197 1.714 1.197 2.727v5.684c.009.33.272.593.612.593zM9.508 10.718H5.72c-.331 0-.611.263-.611.585 0 .321.271.585.611.585h4.308l2.098 4.695a.608.608 0 0 0 .79.305.578.578 0 0 0 .306-.774L6.994 2.15a.615.615 0 0 0-.799-.305.579.579 0 0 0-.306.775l3.62 8.098zM28.003 7.11a.576.576 0 0 0-.11-.824.622.622 0 0 0-.85.115l-1.852 2.39a.576.576 0 0 0 .11.823.63.63 0 0 0 .85-.115l1.852-2.39zM5.668 6.558a.585.585 0 0 0-.306-.775.615.615 0 0 0-.798.305L.053 16.114a.579.579 0 0 0 .306.774.615.615 0 0 0 .798-.305L5.668 6.558zm10.23 10.437a.598.598 0 0 0 .602-.593V.593a.604.604 0 0 0-1.206 0V16.41a.602.602 0 0 0 .603.585zM39.956 13.1s.042-.569-.502-.61c-.543-.041-.645.461-.645.461s-.11 1.08-1.478 2.126c-1.207.922-2.694.857-2.694.857l.009 1.062s1.86.149 3.509-1.219c1.648-1.376 1.8-2.677 1.8-2.677zm-8.827 2.669c1.648 1.367 3.526 1.22 3.526 1.22l-.009-1.072s-1.487.074-2.693-.848c-1.36-1.047-1.478-2.126-1.478-2.126s-.11-.502-.646-.461c-.544.041-.501.61-.501.61s.153 1.31 1.8 2.677zm8.326-5.108c.543-.041.5-.61.5-.61s-.152-1.301-1.8-2.669c-1.648-1.367-3.509-1.219-3.509-1.219l-.008 1.063s1.486-.066 2.693.857c1.359 1.046 1.478 2.125 1.478 2.125s.102.503.645.453zm-4.809-3.427l.009-1.07s-1.878-.15-3.526 1.218c-1.648 1.368-1.801 2.67-1.801 2.67s-.043.568.5.61c.545.04.647-.462.647-.462s.11-1.08 1.478-2.126c1.206-.922 2.693-.84 2.693-.84zm-6.66 9.614a.575.575 0 0 0 .101-.824L23.314 9.82a.62.62 0 0 0-.85-.107.575.575 0 0 0-.102.824l4.775 6.203a.622.622 0 0 0 .85.107zm14.722.148a.598.598 0 0 0 .603-.593V6.846a.603.603 0 0 0-1.206 0v9.556c.009.33.272.593.603.593z" fill="#CFD3D5"/></svg>