<svg width="50" height="38" fill="none" xmlns="http://www.w3.org/2000/svg"><path d="M15.281 0a.986.986 0 0 0-.437.219L4.625 8.063l-.031.03h-.031a1.065 1.065 0 0 0-.22.157c-.01.012-.019.02-.03.031a.467.467 0 0 0-.063.031v.032a.95.95 0 0 0-.094.125.466.466 0 0 0-.03.062l-.032.031a1.072 1.072 0 0 0-.063.157L.094 16.563c-.196.386-.121.851.183 1.16.309.304.774.379 1.16.183L4 16.625V37c0 .55.45 1 1 1h30.031a1.046 1.046 0 0 0 .282-.063.987.987 0 0 0 .343-.187.473.473 0 0 0 .063-.063.473.473 0 0 0 .062-.062l.063-.094a.472.472 0 0 0 .062-.062l7.875-9.844A1.01 1.01 0 0 0 44 27v-9.563l5.719-5.718a.997.997 0 0 0 .125-1.219L44 .781a.986.986 0 0 0-.219-.437.456.456 0 0 0-.031-.063h-.031a.456.456 0 0 0-.032-.062h-.03a.473.473 0 0 0-.063-.063c-.07-.039-.14-.07-.219-.093a.46.46 0 0 0-.063-.032h-.03A.466.466 0 0 0 43.218 0H15.28zm.5 2h24.781l-6 6H7.939l7.843-6zm27.031.625l4.938 8.188-6.563 6.562-4.937-8.188 6.563-6.562zM6 10h28v26H6V15.125A.667.667 0 0 0 6 15v-5zm30 2.563l4.156 6.937a1 1 0 0 0 1.563.219l.281-.282v7.22l-6 7.5V12.562zM4 13.25v1.125l-.75.375.75-1.5zm10.72.75c-.551.078-.938.59-.86 1.14.079.551.59.938 1.141.86h10c.36.004.695-.184.879-.496a1.01 1.01 0 0 0 0-1.008c-.184-.312-.52-.5-.879-.496H14.72z"/></svg>