<svg width="16" height="16" fill="none" xmlns="http://www.w3.org/2000/svg"><path d="M7.997 1.442c2.136 0 2.387.01 3.232.047.78.035 1.203.165 1.485.276.375.146.642.318.92.597.28.28.455.547.598.921.108.283.241.705.276 1.486.038.845.048 1.096.048 3.233 0 2.136-.01 2.387-.048 3.232-.035.781-.165 1.203-.276 1.486a2.481 2.481 0 0 1-.597.92c-.28.28-.546.455-.92.598-.283.108-.706.241-1.486.276-.845.038-1.096.048-3.232.048-2.137 0-2.387-.01-3.232-.048-.78-.035-1.203-.165-1.486-.276a2.481 2.481 0 0 1-.92-.597 2.443 2.443 0 0 1-.597-.921c-.108-.283-.241-.705-.276-1.486-.038-.845-.048-1.095-.048-3.232 0-2.137.01-2.388.048-3.233.035-.78.165-1.203.276-1.486.146-.374.317-.641.597-.92.28-.28.546-.455.92-.598.283-.108.705-.24 1.486-.276.845-.041 1.098-.047 3.232-.047zm0-1.442C5.825 0 5.552.01 4.698.048c-.85.038-1.431.174-1.94.371-.526.203-.97.48-1.415.924A3.968 3.968 0 0 0 .419 2.76C.222 3.267.086 3.85.048 4.703.01 5.553 0 5.827 0 7.998c0 2.172.01 2.445.048 3.3.038.85.174 1.431.371 1.943a3.9 3.9 0 0 0 .924 1.416c.444.444.892.717 1.416.924.508.197 1.089.333 1.943.371C5.556 15.991 5.825 16 8 16s2.444-.01 3.298-.048c.851-.038 1.432-.174 1.943-.371.527-.203.972-.48 1.416-.924.445-.445.718-.892.924-1.416.197-.508.333-1.09.371-1.944.039-.854.048-1.124.048-3.299s-.01-2.445-.048-3.299c-.038-.85-.174-1.432-.371-1.943a3.899 3.899 0 0 0-.924-1.416 3.966 3.966 0 0 0-1.416-.924c-.508-.197-1.089-.333-1.943-.372C10.441.01 10.168 0 7.997 0z" fill="#fff"/><path d="M7.997 3.893a4.109 4.109 0 1 0 .002 8.218 4.109 4.109 0 0 0-.002-8.218zm0 6.773a2.667 2.667 0 1 1 0-5.334 2.667 2.667 0 0 1 0 5.334zm4.27-5.979a.959.959 0 1 0 0-1.918.959.959 0 0 0 0 1.918z" fill="#fff"/></svg>