<svg width="105" height="105" fill="none" xmlns="http://www.w3.org/2000/svg"><path d="M22.4.299L1.299 21.4l30.1 30.1 2.402-2.4L6.1 21.4 22.4 5.101l27.7 27.7 2.4-2.402L22.4.3zm72.346.712A9.26 9.26 0 0 0 88.2 3.709l-1.435 1.445L85.3 3.7 72.699 16.3 10.734 78.254l-9.998 26 26.01-9.998L101.3 19.7l-1.455-1.466 1.445-1.424c2.741-2.752 3.357-6.821 1.923-10.2h.967l-2.89-2.9a9.226 9.226 0 0 0-6.545-2.7zm0 3.378c1.487 0 2.985.574 4.133 1.732a5.818 5.818 0 0 1 0 8.277l-1.435 1.445-8.287-8.277 1.445-1.445a5.827 5.827 0 0 1 4.144-1.732zM85.3 8.501L96.499 19.7l-7.682 7.671-11.188-11.188L85.3 8.501zM24.1 12.9c-.935 0-1.7.765-1.7 1.7 0 .935.765 1.7 1.7 1.7.935 0 1.7-.765 1.7-1.7 0-.935-.765-1.7-1.7-1.7zM19 18c-.935 0-1.7.765-1.7 1.7 0 .935.765 1.7 1.7 1.7.935 0 1.7-.765 1.7-1.7 0-.935-.765-1.7-1.7-1.7zm10.2 0c-.935 0-1.7.765-1.7 1.7 0 .935.765 1.7 1.7 1.7.935 0 1.7-.765 1.7-1.7 0-.935-.765-1.7-1.7-1.7zm45.9.701L86.299 29.9 26.916 89.283c-.298-.935-.765-1.934-1.615-2.784-1.243-1.253-2.816-1.71-4.06-1.955-.392-.074-.392-.042-.711-.074-.032-.319 0-.319-.074-.712-.245-1.243-.702-2.816-1.955-4.059-.85-.85-1.85-1.317-2.784-1.615L75.1 18.701zM34.3 23.1c-.935 0-1.7.765-1.7 1.7 0 .935.765 1.7 1.7 1.7.935 0 1.7-.765 1.7-1.7 0-.935-.765-1.7-1.7-1.7zm40.8 0c-.935 0-1.7.765-1.7 1.7 0 .935.765 1.7 1.7 1.7.935 0 1.7-.765 1.7-1.7 0-.935-.765-1.7-1.7-1.7zm-45.9 5.1c-.935 0-1.7.765-1.7 1.7 0 .935.765 1.7 1.7 1.7.935 0 1.7-.765 1.7-1.7 0-.935-.765-1.7-1.7-1.7zm10.2 0c-.935 0-1.7.765-1.7 1.7 0 .935.765 1.7 1.7 1.7.935 0 1.7-.765 1.7-1.7 0-.935-.765-1.7-1.7-1.7zm30.6 0c-.935 0-1.7.765-1.7 1.7 0 .935.765 1.7 1.7 1.7.935 0 1.7-.765 1.7-1.7 0-.935-.765-1.7-1.7-1.7zm-25.5 5.1c-.935 0-1.7.765-1.7 1.7 0 .935.765 1.7 1.7 1.7.935 0 1.7-.765 1.7-1.7 0-.935-.765-1.7-1.7-1.7zm20.4 0c-.935 0-1.7.765-1.7 1.7 0 .935.765 1.7 1.7 1.7.935 0 1.7-.765 1.7-1.7 0-.935-.765-1.7-1.7-1.7zm-25.5 5.1c-.935 0-1.7.765-1.7 1.7 0 .935.765 1.7 1.7 1.7.935 0 1.7-.765 1.7-1.7 0-.935-.765-1.7-1.7-1.7zm20.4 0c-.935 0-1.7.765-1.7 1.7 0 .935.765 1.7 1.7 1.7.935 0 1.7-.765 1.7-1.7 0-.935-.765-1.7-1.7-1.7zm-5.1 5.1c-.935 0-1.7.765-1.7 1.7 0 .935.765 1.7 1.7 1.7.935 0 1.7-.765 1.7-1.7 0-.935-.765-1.7-1.7-1.7zm-5.1 5.1c-.935 0-1.7.765-1.7 1.7 0 .935.765 1.7 1.7 1.7.935 0 1.7-.765 1.7-1.7 0-.935-.765-1.7-1.7-1.7zm25 3.9l-2.4 2.4 27.699 27.7L83.6 98.899l-27.7-27.7-2.4 2.402 30.1 30.1L104.701 82.6l-30.1-30.1zm-30.1 1.2c-.935 0-1.7.765-1.7 1.7 0 .935.765 1.7 1.7 1.7.935 0 1.7-.765 1.7-1.7 0-.935-.765-1.7-1.7-1.7zm-5.1 5.1c-.935 0-1.7.765-1.7 1.7 0 .935.765 1.7 1.7 1.7.935 0 1.7-.765 1.7-1.7 0-.935-.765-1.7-1.7-1.7zm30.6.553c-.935 0-1.7.754-1.7 1.7 0 .934.765 1.7 1.7 1.7.935 0 1.7-.766 1.7-1.7 0-.946-.765-1.7-1.7-1.7zM34.3 63.9c-.935 0-1.7.765-1.7 1.7 0 .935.765 1.7 1.7 1.7.935 0 1.7-.765 1.7-1.7 0-.935-.765-1.7-1.7-1.7zm40.8 0c-.935 0-1.7.765-1.7 1.7 0 .935.765 1.7 1.7 1.7.935 0 1.7-.765 1.7-1.7 0-.935-.765-1.7-1.7-1.7zm-10.2.553c-.935 0-1.7.754-1.7 1.7 0 .934.765 1.7 1.7 1.7.935 0 1.7-.766 1.7-1.7 0-.946-.765-1.7-1.7-1.7zM29.2 69c-.935 0-1.7.765-1.7 1.7 0 .935.765 1.7 1.7 1.7.935 0 1.7-.765 1.7-1.7 0-.935-.765-1.7-1.7-1.7zm51 .552c-.935 0-1.7.755-1.7 1.7 0 .936.765 1.7 1.7 1.7.935 0 1.7-.764 1.7-1.7 0-.945-.765-1.7-1.7-1.7zM24.1 74.1c-.935 0-1.7.765-1.7 1.7 0 .935.765 1.7 1.7 1.7.935 0 1.7-.765 1.7-1.7 0-.935-.765-1.7-1.7-1.7zm61.2 0c-.935 0-1.7.765-1.7 1.7 0 .935.765 1.7 1.7 1.7.935 0 1.7-.765 1.7-1.7 0-.935-.765-1.7-1.7-1.7zm-10.2.553c-.935 0-1.7.754-1.7 1.7 0 .934.765 1.7 1.7 1.7.935 0 1.7-.766 1.7-1.7 0-.946-.765-1.7-1.7-1.7zm15.3 5.1c-.935 0-1.7.754-1.7 1.7 0 .934.765 1.7 1.7 1.7.935 0 1.7-.766 1.7-1.7 0-.946-.765-1.7-1.7-1.7zm-77.074 1.264c.16.021.276.032.457.064.882.18 1.86.573 2.316 1.02.447.456.84 1.434 1.02 2.316.181.892.181 1.583.181 1.583v1.7H19s.69 0 1.583.18c.882.181 1.86.574 2.316 1.02.447.457.84 1.435 1.02 2.317.032.18.043.297.064.457L12.211 96.21l-3.422-3.422 4.537-11.772zM85.3 84.852c-.935 0-1.7.755-1.7 1.7 0 .935.765 1.7 1.7 1.7.935 0 1.7-.765 1.7-1.7 0-.945-.765-1.7-1.7-1.7z" fill="#0867AD"/></svg>