<svg width="81" height="90" fill="none" xmlns="http://www.w3.org/2000/svg"><path fill-rule="evenodd" clip-rule="evenodd" d="M8.822 59.317c0-.796-.401-3.981-.401-5.175 0-.399.4-.797.4-1.195C9.224 39.81 18.847 29.46 31.278 27.47c3.61-2.787 7.218-5.574 11.228-8.36-2.406-.398-4.812-.796-7.218-.796C15.64 18.313 0 34.635 0 54.142 0 58.52.802 62.9 2.406 66.88c.4.796.802 1.99 1.203 3.184 3.208 6.37 8.02 11.545 14.436 15.128-3.208-4.777-4.411-6.37-3.61-11.147 2.808-26.274 40.902-48.568 58.545-55.733l.802-1.99C76.188 10.748 78.594 5.174 81 0 37.292 20.303 17.243 42.597 8.822 59.317z" fill="#fff"/><path fill-rule="evenodd" clip-rule="evenodd" d="M67.764 39.84c-.802 1.99-1.604 4.379-2.406 6.37l-.401 1.193h-1.203c-.802.398-1.604.398-2.406.398.4 1.991.802 4.38.802 6.37 0 10.749-6.015 19.905-14.837 24.284l-2.406 1.194C6.813 86.815 31.274 48.2 63.353 45.413c2.005-5.573 4.41-12.341 6.816-19.507-24.46 8.36-50.925 33.042-51.727 49.364C18.04 82.436 24.056 88.806 34.08 90c1.604 0 2.807 0 6.015-.398 17.243-2.389 30.475-17.118 30.475-35.43 0-5.176-1.202-9.953-2.806-14.332z" fill="#fff"/></svg>