<svg width="365" height="549" fill="none" xmlns="http://www.w3.org/2000/svg"><g clip-path="url(#clip0)"><path d="M313 301.496l.385-221.34L334 80.122l-.384 221.338-20.616.036z" stroke="#0867AD" stroke-width="12"/><path d="M312.769 301.214l.02-11.805 20.554-.035-.02 11.805-20.554.035zm-.558-240.124L311 56.118l25-.037-1.23 4.975-22.559.034zM334.157 8L337 35.004l-27 .042 2.945-27.012L334.157 8zm19.829 317.432l-61.986.104.014-7.908 61.986-.105-.014 7.909zm-66.325 137.989v-.077l-.001-.078a37.246 37.246 0 0 1 6.426-21.617c2.021-2.858 3.452-6.677 4.514-10.251 1.128-3.791 2.059-8.08 2.801-12.315 1.471-8.407 2.309-17.263 2.318-22.61v-.003l.113-54.311 38.299-.066-.094 54.249c-.009 5.346.797 14.201 2.242 22.606.728 4.234 1.646 8.522 2.764 12.315 1.053 3.572 2.476 7.394 4.498 10.257a37.01 37.01 0 0 1 6.34 21.573l-.002.076v.075l-.1 43.265v.004a35.682 35.682 0 0 1-11.174 25.883l-.001.002c-7.094 6.698-16.602 10.144-26.265 9.533-18.755-1.662-33.03-17.612-32.75-36.615l.001-.05v-.049l.071-41.796z" stroke="#0867AD" stroke-width="12"/><path d="M357.88 463.213v.034l-.085 43.248a35.694 35.694 0 0 1-11.176 25.888l-.001.001c-7.094 6.698-16.602 10.144-26.265 9.533-18.755-1.662-33.03-17.612-32.75-36.615l.001-.049v-.05l.071-41.796v-.031c-.005-2.054.14-4.106.431-6.137l69.371-.113c.28 2.015.416 4.049.403 6.087v0z" stroke="#0867AD" stroke-width="12"/><path d="M319.353 533.801c12.442.814 24.694-3.088 34.399-10.848a35.556 35.556 0 0 1-7.13 9.433l-.002.001c-7.094 6.698-16.601 10.144-26.264 9.533-12.572-1.114-23.131-8.648-28.642-19.219a50.418 50.418 0 0 0 27.484 11.088l.078.007.077.005z" stroke="#0867AD" stroke-width="12"/><path d="M.004 473.49a74.392 74.392 0 0 0 21.935 52.954c20.006 20.035 49.606 27.068 76.487 18.176 26.88-8.892 46.446-32.191 50.555-60.205 4.113-28.014-7.936-55.951-31.13-72.192l-.003-284.35a74.434 74.434 0 0 0 31.907-61.267 75.19 75.19 0 0 0-37.259-64.694 6.995 6.995 0 0 0-7.001-.02 7 7 0 0 0-3.507 6.06v74.299L74.895 97.9 47.799 82.253 47.788 7.95a6.98 6.98 0 0 0-3.507-6.06 6.983 6.983 0 0 0-6.998.022A74.752 74.752 0 0 0 .068 63.424a74.756 74.756 0 0 0 31.863 64.449v284.353A74.423 74.423 0 0 0 .004 473.49zm45.912-349.373a6.994 6.994 0 0 0-2.043-4.944 7.525 7.525 0 0 0-1.23-.981A60.724 60.724 0 0 1 14.24 72.153a60.743 60.743 0 0 1 19.574-50.428l.006 64.565a6.966 6.966 0 0 0 3.49 6.05l34.086 19.681a6.99 6.99 0 0 0 6.984-.003l34.086-19.676a7.003 7.003 0 0 0 3.493-6.052l.006-64.565a60.738 60.738 0 0 1 19.588 50.431A60.748 60.748 0 0 1 107.15 118.2a6.988 6.988 0 0 0-3.276 5.923l.008 291.85a7 7 0 0 0 3.276 5.923c23.054 14.39 33.782 42.313 26.299 68.441-7.481 26.126-31.364 44.136-58.545 44.142-27.176.005-51.068-17.991-58.565-44.117-7.492-26.125 3.229-54.051 26.274-68.455a6.986 6.986 0 0 0 3.276-5.923l.019-291.867zM33.828 493.164a6.985 6.985 0 0 0 3.493 6.046l34.086 19.682a6.999 6.999 0 0 0 6.984.003l34.086-19.682a6.983 6.983 0 0 0 3.493-6.052l.003-39.36a6.964 6.964 0 0 0-3.493-6.053l-34.086-19.659a6.992 6.992 0 0 0-7.006-.003l-34.09 19.679a6.975 6.975 0 0 0-3.49 6.049l.02 39.35zm41.075-50.974l27.093 15.644-.002 31.293-27.091 15.648-27.096-15.648-.002-31.293 27.098-15.644zm.447-42.468c12.537-.025 22.692-10.18 22.714-22.715V171.418c0-12.545-10.168-22.714-22.717-22.711-12.546 0-22.714 10.169-22.714 22.714v205.578c.024 12.537 10.182 22.695 22.717 22.717v.006zm0-13.974a8.759 8.759 0 0 1-8.754-8.754l.013-205.57a8.753 8.753 0 0 1 8.755-8.754c4.83 0 8.75 3.92 8.75 8.751l-.01 205.573c.003 4.833-3.918 8.754-8.754 8.754z" fill="#0867AD"/></g><defs><clipPath id="clip0"><path fill="#fff" d="M0 0h364.722v548.598H0z"/></clipPath></defs></svg>