<svg width="28" height="28" fill="none" xmlns="http://www.w3.org/2000/svg"><path d="M6.081.77C5.62.734 5.103.869 4.63 1.2c-.42.29-1.321 1.008-2.164 1.818-.42.405-.822.826-1.132 1.238-.313.414-.585.79-.569 1.342.017.493.067 1.951 1.116 4.186 1.051 2.235 3.087 5.3 7.058 9.273 3.976 3.976 7.04 6.012 9.275 7.06 2.233 1.052 3.694 1.101 4.189 1.118.547.014.926-.258 1.338-.57.414-.313.833-.711 1.238-1.133.808-.842 1.525-1.744 1.816-2.161.666-.947.554-2.064-.184-2.585-.467-.327-4.743-3.173-5.387-3.568-.654-.398-1.404-.218-2.077.137-.528.28-1.96 1.099-2.368 1.333-.308-.194-1.475-.97-3.987-3.482-2.512-2.51-3.29-3.677-3.483-3.985.234-.41 1.051-1.832 1.335-2.37.35-.67.55-1.43.128-2.086-.175-.279-.978-1.498-1.785-2.722-.81-1.224-1.58-2.384-1.779-2.661v-.003c-.26-.36-.667-.57-1.127-.608zm7.914 1.21v1.203c5.969 0 10.825 4.854 10.825 10.822h1.203c0-6.629-5.396-12.024-12.028-12.024zM5.97 2a.67.67 0 0 1 .263.085c.097.135.94 1.399 1.75 2.62A389.967 389.967 0 0 1 9.759 7.41c.02.036.054.436-.18.881v.002a189.6 189.6 0 0 1-1.504 2.669l-.17.3.175.3s.923 1.559 3.86 4.494c2.938 2.936 4.496 3.862 4.496 3.862l.3.177.304-.172s2.16-1.236 2.668-1.504c.443-.232.843-.201.89-.173a546.46 546.46 0 0 1 5.321 3.526c.01.007.26.388-.106.909h-.003c-.22.317-.944 1.236-1.697 2.02-.38.392-.765.76-1.095 1.005-.329.247-.622.325-.575.327-.514-.017-1.643-.028-3.717-1.004-2.075-.973-5.034-2.919-8.937-6.823-3.897-3.9-5.846-6.858-6.821-8.935-.971-2.074-.983-3.203-1-3.712.003.047.08-.249.327-.578.246-.329.611-.72 1.002-1.098.788-.753 1.705-1.478 2.022-1.698v.003c.26-.183.488-.206.651-.187zm8.025 3.314v1.203c4.132 0 7.492 3.36 7.492 7.488h1.202c0-4.794-3.9-8.69-8.694-8.69zm0 3.28v1.202c2.32 0 4.21 1.89 4.21 4.21h1.203a5.419 5.419 0 0 0-5.413-5.413z" fill="#fff"/></svg>