<svg width="16" height="8" fill="none" xmlns="http://www.w3.org/2000/svg"><path d="M7.698.002c-.862-.007-1.585 0-2.002.173-.27.115-.482.384-.358.397.16.019.526.083.716.314.249.295.234.955.234.955s.139 1.813-.329 2.044c-.329.16-.767-.16-1.724-1.609-.49-.743-.862-1.563-.862-1.563s-.066-.154-.197-.23C3.022.38 2.81.347 2.81.347L.516.36S.18.373.056.501c-.117.122-.015.36-.015.36s1.79 3.67 3.821 5.516c1.856 1.705 3.967 1.59 3.967 1.59h.958s.292-.026.438-.167c.131-.129.131-.366.131-.366s-.022-1.127.578-1.294c.584-.16 1.337 1.09 2.133 1.57.606.365 1.066.282 1.066.282l2.141-.026s1.11-.057.585-.833c-.044-.057-.307-.57-1.586-1.608-1.344-1.09-1.161-.916.453-2.8.98-1.154 1.374-1.852 1.25-2.153-.117-.289-.84-.212-.84-.212l-2.404.013s-.183-.02-.314.045c-.125.07-.212.23-.212.23s-.38.891-.884 1.647c-1.074 1.596-1.505 1.686-1.68 1.583-.403-.23-.308-.929-.308-1.422 0-1.551.27-2.192-.518-2.358C8.553.04 8.363.002 7.698.002z" fill="#fff"/></svg>