<svg width="220" height="78" viewBox="0 0 220 78" fill="none" xmlns="http://www.w3.org/2000/svg">
<path fill-rule="evenodd" clip-rule="evenodd" d="M5.55678 69.44V75.2249H4.44426V70.2664H1.9411V75.2249H0.828583V69.44H5.55678ZM217.213 72.4702C216.1 72.1947 214.71 72.4702 214.71 73.5721C214.71 74.3985 215.266 74.674 215.544 74.674C216.379 74.674 216.935 74.123 217.213 73.8475C217.213 73.5721 217.213 73.5721 217.213 73.2966V72.4702ZM218.047 73.8475C218.047 74.3985 218.047 74.9494 218.325 75.2249H217.213V74.674C216.935 74.9494 216.1 75.5004 215.266 75.5004C214.153 75.5004 213.597 74.674 213.597 73.8475C213.597 72.4702 214.988 71.6438 217.213 71.6438V71.3683C217.213 71.0928 216.935 70.2664 215.822 70.2664C215.266 70.2664 214.71 70.2664 214.153 70.5419V69.9909C214.432 69.44 215.266 69.44 215.822 69.44C217.769 69.44 218.047 70.5419 218.047 71.6438V73.8475ZM209.147 71.9192H209.703C210.538 71.9192 211.372 71.6438 211.372 71.0928C211.372 70.5419 210.816 70.2664 209.982 70.2664C209.425 70.2664 209.147 70.2664 209.147 70.2664V71.9192ZM209.147 74.674C209.425 74.674 209.425 74.674 209.982 74.674C210.538 74.674 211.65 74.674 211.65 73.5721C211.65 72.7456 210.816 72.7456 209.703 72.7456H209.147V74.674ZM208.035 69.44C208.313 69.44 209.147 69.44 209.982 69.44C210.816 69.44 212.485 69.7154 212.485 70.8173C212.485 71.6438 211.928 72.1947 211.372 72.1947C212.207 72.4702 212.763 72.7456 212.763 73.5721C212.763 75.2249 210.816 75.5004 209.703 75.5004C209.147 75.5004 208.313 75.5004 208.035 75.2249V69.44ZM205.253 72.4702C204.141 72.1947 202.75 72.4702 202.75 73.5721C202.75 74.3985 203.306 74.674 203.863 74.674C204.697 74.674 204.975 74.123 205.253 73.8475C205.253 73.5721 205.253 73.5721 205.253 73.2966V72.4702ZM206.366 73.8475C206.366 74.3985 206.366 74.9494 206.366 75.2249H205.531V74.674H205.253C204.975 74.9494 204.419 75.5004 203.585 75.5004C202.472 75.5004 201.916 74.674 201.916 73.8475C201.916 72.4702 203.028 71.6438 205.253 71.6438V71.3683C205.253 71.0928 205.253 70.2664 203.863 70.2664C203.306 70.2664 202.75 70.2664 202.472 70.5419L202.194 69.9909C202.75 69.44 203.306 69.44 204.141 69.44C205.81 69.44 206.366 70.5419 206.366 71.6438V73.8475ZM197.466 69.44V71.9192H197.744L199.969 69.44H201.081L198.578 72.1947C199.691 72.1947 200.247 72.7456 200.525 73.8475C200.803 74.3985 200.803 74.9494 201.081 75.2249H199.969C199.969 75.2249 199.691 74.674 199.413 74.123C199.135 73.2966 198.578 72.7456 197.744 72.7456H197.466V75.2249H196.353V69.44H197.466ZM179.109 71.9192C179.109 71.0928 178.831 69.9909 177.719 69.9909C176.606 69.9909 176.05 71.0928 176.05 71.9192H179.109ZM176.05 72.4702C176.05 74.123 176.884 74.674 177.997 74.674C178.831 74.674 179.109 74.3985 179.665 74.3985V75.2249C179.387 75.2249 178.831 75.5004 177.719 75.5004C176.05 75.5004 174.937 74.3985 174.937 72.4702C174.937 70.8173 176.05 69.44 177.719 69.44C179.665 69.44 180.222 71.0928 180.222 72.1947V72.4702H176.05ZM169.653 69.44V71.9192C169.653 72.7456 169.653 73.5721 169.653 74.3985C169.931 73.5721 170.209 73.2966 170.765 72.4702L172.434 69.44H173.825V75.2249H172.712V72.7456C172.712 71.9192 172.712 71.3683 172.712 70.5419C172.434 71.0928 172.156 71.6438 171.878 72.1947C171.322 73.2966 170.487 74.3985 169.931 75.2249H168.818V69.44H169.653ZM164.09 69.44V71.9192H164.368L166.593 69.44H167.706L165.203 72.1947C166.037 72.1947 166.593 72.7456 167.15 73.8475C167.428 74.3985 167.428 74.9494 167.706 75.2249H166.593C166.593 75.2249 166.315 74.674 166.037 74.123C165.759 73.2966 165.203 72.7456 164.368 72.7456H164.09V75.2249H162.978V69.44H164.09ZM161.865 75.2249C161.587 75.2249 160.753 75.5004 160.196 75.5004C158.25 75.5004 157.137 74.3985 157.137 72.4702C157.137 70.5419 158.528 69.44 160.196 69.44C161.031 69.44 161.587 69.44 161.865 69.7154L161.587 70.5419C161.309 70.2664 160.753 70.2664 160.196 70.2664C159.084 70.2664 158.25 71.0928 158.25 72.4702C158.25 73.8475 159.084 74.674 160.196 74.674C160.753 74.674 161.309 74.3985 161.587 74.3985L161.865 75.2249ZM155.19 71.9192C155.19 71.0928 154.912 69.9909 153.799 69.9909C152.687 69.9909 152.131 71.0928 152.131 71.9192H155.19ZM152.131 72.4702C152.131 74.123 152.965 74.674 154.078 74.674C154.912 74.674 155.468 74.3985 155.746 74.3985L156.025 75.2249C155.468 75.2249 154.912 75.5004 154.078 75.5004C152.131 75.5004 151.018 74.3985 151.018 72.4702C151.018 70.8173 152.131 69.44 153.799 69.44C155.746 69.44 156.303 71.0928 156.303 72.1947V72.4702H152.131ZM146.29 69.44V71.3683C146.29 72.1947 146.568 72.7456 147.403 72.7456C147.959 72.7456 148.515 72.4702 148.793 72.1947V69.44H149.906V75.5004H148.793V73.0211C148.515 73.2966 147.681 73.5721 147.124 73.5721C146.012 73.5721 145.178 73.0211 145.178 71.6438V69.44H146.29ZM139.893 69.44V71.9192C139.893 72.7456 139.893 73.5721 139.615 74.3985H139.893C140.171 73.5721 140.449 73.2966 140.727 72.4702L142.674 69.44H143.787V75.2249H142.674V72.7456C142.674 71.9192 142.674 71.3683 142.952 70.5419C142.396 71.0928 142.118 71.6438 141.84 72.1947C141.284 73.2966 140.727 74.3985 139.893 75.2249H138.781V69.44H139.893ZM137.112 69.44V75.2249H135.999V70.2664H134.052V71.9192C134.052 73.5721 133.774 74.674 133.218 74.9494C132.94 75.2249 132.662 75.5004 132.105 75.5004L131.827 74.674C132.105 74.674 132.384 74.3985 132.384 74.3985C132.94 73.8475 132.94 73.0211 132.94 71.9192V69.44H137.112ZM127.655 71.9192H128.49C129.324 71.9192 129.88 71.6438 129.88 71.0928C129.88 70.5419 129.602 70.2664 128.49 70.2664C128.212 70.2664 127.934 70.2664 127.655 70.2664V71.9192ZM127.655 74.674C127.934 74.674 128.212 74.674 128.49 74.674C129.046 74.674 130.159 74.674 130.159 73.5721C130.159 72.7456 129.324 72.7456 128.49 72.7456H127.655V74.674ZM126.543 69.44C127.099 69.44 127.655 69.44 128.49 69.44C129.324 69.44 130.993 69.7154 130.993 70.8173C130.993 71.6438 130.437 72.1947 129.88 72.1947C130.715 72.4702 131.271 72.7456 131.271 73.5721C131.271 75.2249 129.324 75.5004 128.212 75.5004C127.655 75.5004 126.821 75.5004 126.543 75.2249V69.44ZM124.04 72.4702C122.649 72.1947 121.537 72.4702 121.537 73.5721C121.537 74.3985 121.815 74.674 122.371 74.674C123.205 74.674 123.762 74.123 123.762 73.8475C123.762 73.5721 124.04 73.5721 124.04 73.2966V72.4702ZM124.874 73.8475C124.874 74.3985 124.874 74.9494 125.152 75.2249H124.04V74.674C123.483 74.9494 122.927 75.5004 122.093 75.5004C120.98 75.5004 120.424 74.674 120.424 73.8475C120.424 72.4702 121.537 71.6438 123.762 71.6438V71.3683C123.762 71.0928 123.762 70.2664 122.649 70.2664C122.093 70.2664 121.537 70.2664 120.98 70.5419L120.702 69.9909C121.258 69.44 122.093 69.44 122.649 69.44C124.596 69.44 124.874 70.5419 124.874 71.6438V73.8475ZM109.299 71.3683C109.299 71.9192 109.021 72.7456 108.743 73.5721C108.743 73.8475 108.464 74.123 108.464 74.674H110.968V70.2664H109.299V71.3683ZM112.08 69.44V74.674H112.636V77.1532H111.802V75.2249H107.63V77.1532H106.796V74.674H107.352C107.63 74.123 107.908 73.8475 107.908 73.2966C108.186 72.7456 108.186 71.9192 108.186 71.0928V69.44H112.08ZM102.068 69.44V71.9192C102.068 72.7456 101.789 73.5721 101.789 74.3985C102.346 73.5721 102.346 73.2966 102.902 72.4702L104.571 69.44H105.961V75.2249H104.849V72.7456C104.849 71.9192 104.849 71.3683 104.849 70.5419C104.571 71.0928 104.293 71.6438 104.014 72.1947C103.458 73.2966 102.624 74.3985 102.068 75.2249H100.955V69.44H102.068ZM99.8425 69.44V70.2664H97.3393V75.2249H96.5049V69.44H99.8425ZM88.1611 69.44V71.9192C88.1611 72.7456 88.1611 73.5721 88.1611 74.3985C88.4392 73.5721 88.7173 73.2966 88.9955 72.4702L90.9424 69.44H92.0549V75.2249H91.2205V72.7456C91.2205 71.9192 91.2205 71.3683 91.2205 70.5419C90.6642 71.0928 90.6642 71.6438 90.108 72.1947C89.5517 73.2966 88.9955 74.3985 88.4392 75.2249H87.0486V69.44H88.1611ZM82.3204 71.9192C82.3204 71.0928 82.0422 69.9909 80.9297 69.9909C79.8172 69.9909 79.2609 71.0928 79.2609 71.9192H82.3204ZM79.2609 72.4702C79.2609 74.123 80.0953 74.674 81.2078 74.674C82.0422 74.674 82.3204 74.3985 82.8766 74.3985V75.2249C82.5985 75.2249 82.0422 75.5004 80.9297 75.5004C79.2609 75.5004 78.1484 74.3985 78.1484 72.4702C78.1484 70.8173 79.2609 69.44 80.9297 69.44C82.8766 69.44 83.4329 71.0928 83.4329 72.1947V72.4702H79.2609ZM76.7578 69.44V75.2249H75.9234V69.44H76.7578ZM71.7515 74.674C71.7515 74.674 72.0296 74.674 72.3077 74.674C73.1421 74.674 73.9765 74.3985 73.9765 73.2966C73.9765 72.4702 73.1421 72.1947 72.3077 72.1947C72.0296 72.1947 71.7515 72.1947 71.7515 72.1947V74.674ZM71.7515 69.44V71.3683C71.7515 71.3683 72.3077 71.3683 72.5859 71.3683C73.6984 71.3683 75.089 71.9192 75.089 73.2966C75.089 74.123 74.8109 74.3985 74.5328 74.674C73.9765 75.2249 72.864 75.5004 72.0296 75.5004C71.4733 75.5004 70.9171 75.5004 70.6389 75.2249V69.44H71.7515ZM65.0764 69.44V71.9192H67.8577V69.44H68.9702V75.2249H67.8577V72.7456H65.0764V75.2249H63.9639V69.44H65.0764ZM58.4013 69.44V71.9192H61.1826V69.44H62.2951V75.2249H61.1826V72.7456H58.4013V75.2249H57.5669V69.44H58.4013ZM55.0637 71.9192C55.0637 71.0928 54.7856 69.9909 53.6731 69.9909C52.5606 69.9909 52.0043 71.0928 52.0043 71.9192H55.0637ZM52.0043 72.4702C52.0043 74.123 52.8387 74.674 53.9512 74.674C54.7856 74.674 55.3419 74.3985 55.62 74.3985L55.8981 75.2249C55.3419 75.2249 54.7856 75.5004 53.9512 75.5004C52.0043 75.5004 50.8918 74.3985 50.8918 72.4702C50.8918 70.8173 52.0043 69.44 53.6731 69.44C55.62 69.44 56.1762 71.0928 56.1762 72.1947V72.4702H52.0043ZM49.7793 69.44V75.2249H48.6668V70.2664H46.7199V71.9192C46.7199 73.5721 46.4417 74.674 45.8855 74.9494C45.6073 75.2249 45.0511 75.5004 44.4948 75.5004V74.674C44.773 74.674 45.0511 74.3985 45.0511 74.3985C45.6073 73.8475 45.6073 73.0211 45.6073 71.9192V69.44H49.7793ZM37.5416 69.44V74.3985H39.4885V69.44H40.601V74.3985H42.5479V69.44H43.6604V75.2249H36.4291V69.44H37.5416ZM34.7603 69.44V75.2249H33.6478V69.44H34.7603ZM29.4759 74.674C29.754 74.674 29.754 74.674 30.0321 74.674C30.8665 74.674 31.979 74.3985 31.979 73.2966C31.979 72.4702 31.1446 72.1947 30.3103 72.1947C30.0321 72.1947 29.754 72.1947 29.4759 72.1947V74.674ZM29.4759 69.44V71.3683C29.754 71.3683 30.0321 71.3683 30.3103 71.3683C31.7009 71.3683 32.8134 71.9192 32.8134 73.2966C32.8134 74.123 32.8134 74.3985 32.2572 74.674C31.7009 75.2249 30.5884 75.5004 30.0321 75.5004C29.4759 75.5004 28.9196 75.5004 28.3633 75.2249V69.44H29.4759ZM20.8539 69.44H22.2445L23.0789 72.4702C23.357 72.7456 23.6352 73.5721 23.6352 74.123C23.9133 73.5721 24.1914 72.7456 24.4695 71.9192L25.3039 69.44H26.6946L26.9727 75.2249H26.1383L25.8602 72.4702C25.8602 71.9192 25.8602 71.0928 25.8602 70.5419C25.5821 71.0928 25.5821 71.3683 25.0258 72.4702L23.9133 75.2249H23.357L22.2445 72.4702C21.9664 71.9192 21.6883 71.0928 21.6883 70.5419C21.6883 71.0928 21.4101 71.9192 21.4101 72.4702V75.2249H20.2976L20.8539 69.44ZM14.735 72.4702C14.735 73.8475 15.5694 74.674 16.6819 74.674C17.5163 74.674 18.3507 73.8475 18.3507 72.4702C18.3507 71.3683 17.7944 70.2664 16.6819 70.2664C15.2913 70.2664 14.735 71.3683 14.735 72.4702ZM19.4632 72.4702C19.4632 74.674 17.7944 75.5004 16.4038 75.5004C15.0132 75.5004 13.6225 74.3985 13.6225 72.4702C13.6225 70.5419 15.0132 69.44 16.6819 69.44C18.3507 69.44 19.4632 70.5419 19.4632 72.4702Z" fill="#4F575B"/>
<path fill-rule="evenodd" clip-rule="evenodd" d="M8.337 73.0211V73.2966C8.61513 74.123 9.17139 74.674 10.0058 74.674C11.1183 74.674 11.6745 73.8475 11.6745 72.4702C11.6745 71.0928 11.1183 70.2664 10.0058 70.2664C9.17139 70.2664 8.61513 70.8173 8.337 71.6438V71.9192V73.0211ZM7.22449 71.3683C7.22449 70.5419 7.22449 69.9909 7.22449 69.44H8.05887L8.337 70.5419C8.61513 69.7154 9.44952 69.44 10.2839 69.44C11.6745 69.44 12.7871 70.5419 12.7871 72.1947C12.7871 74.3985 11.3964 75.5004 10.2839 75.5004C9.44952 75.5004 8.61513 75.2249 8.337 74.674V77.7042H7.22449V71.3683Z" fill="#4F575B"/>
<path fill-rule="evenodd" clip-rule="evenodd" d="M115.136 73.0211V73.2966C115.414 74.123 115.97 74.674 116.804 74.674C117.917 74.674 118.473 73.8475 118.473 72.4702C118.473 71.0928 117.917 70.2664 116.804 70.2664C115.97 70.2664 115.414 70.8173 115.136 71.6438V71.9192V73.0211ZM114.023 71.3683C114.023 70.5419 114.023 69.9909 114.023 69.44H114.857V70.5419C115.414 69.7154 115.97 69.44 117.082 69.44C118.473 69.44 119.586 70.5419 119.586 72.1947C119.586 74.3985 118.195 75.5004 116.804 75.5004C115.97 75.5004 115.414 75.2249 115.136 74.674V77.7042H114.023V71.3683Z" fill="#4F575B"/>
<path fill-rule="evenodd" clip-rule="evenodd" d="M184.945 73.0211V73.2966C185.223 74.123 185.779 74.674 186.614 74.674C187.726 74.674 188.561 73.8475 188.561 72.4702C188.561 71.0928 187.726 70.2664 186.614 70.2664C186.057 70.2664 185.223 70.8173 185.223 71.6438C184.945 71.6438 184.945 71.9192 184.945 71.9192V73.0211ZM184.111 71.3683C184.111 70.5419 183.832 69.9909 183.832 69.44H184.945V70.5419C185.501 69.7154 186.057 69.44 186.892 69.44C188.561 69.44 189.395 70.5419 189.395 72.1947C189.395 74.3985 188.283 75.5004 186.892 75.5004C186.057 75.5004 185.501 75.2249 184.945 74.674V77.7042H184.111V71.3683Z" fill="#4F575B"/>
<path fill-rule="evenodd" clip-rule="evenodd" d="M191.069 69.44L192.46 73.0211C192.46 73.2966 192.738 73.8475 192.738 74.123C193.016 73.8475 193.016 73.2966 193.016 73.0211L194.407 69.44H195.519L193.85 73.5721C193.016 75.7759 192.46 76.6023 191.903 77.4287C191.347 77.7042 190.791 77.9797 190.513 77.9797L190.235 77.1532C190.513 77.1532 190.791 76.8778 191.069 76.6023C191.347 76.3268 191.903 76.0513 192.182 75.5004C192.182 75.2249 192.182 75.2249 192.182 75.2249V74.9494L189.957 69.44H191.069Z" fill="#4F575B"/>
<path fill-rule="evenodd" clip-rule="evenodd" d="M151.576 39.9641H132.107V43.8207H151.576C152.688 43.8207 153.801 43.5452 154.635 43.5452C156.026 42.9943 156.86 42.7188 156.86 41.8924C156.86 41.3414 156.026 40.7905 154.635 40.515C153.801 40.2395 152.688 39.9641 151.576 39.9641ZM218.049 44.6471V33.0772C218.049 22.8846 210.817 17.6506 196.076 17.6506H193.851C179.389 17.6506 172.157 22.8846 172.157 33.0772V42.1678H183.004V33.0772C183.004 30.047 184.395 28.1186 187.176 27.2922C188.567 26.7413 191.626 26.4658 196.355 26.4658C199.97 26.4658 202.473 26.7413 204.142 27.5677C206.089 28.3941 207.202 30.3224 207.202 33.0772V44.6471H186.62H183.004H172.157H170.21V52.9114H219.996V44.6471H218.049ZM114.028 21.2318C110.691 18.7525 106.797 17.6506 102.069 17.6506H72.8654V26.7413H102.903C104.572 26.7413 105.685 27.0167 106.797 27.8432C107.91 28.6696 108.188 29.496 108.188 30.8734C108.188 31.9753 107.91 33.0772 106.797 33.9036C105.685 34.73 104.572 35.0055 102.903 35.0055H83.7124V30.8734H72.8654V35.0055V46.0245V52.9114H83.7124V46.0245V44.0962H102.069C106.797 44.0962 110.691 42.9943 114.028 40.515C117.366 38.0357 119.035 34.73 119.035 30.8734C119.035 27.0167 117.366 23.7111 114.028 21.2318ZM164.648 35.5565C166.595 37.4848 167.707 39.4131 167.707 41.8924C167.707 43.5452 167.151 45.1981 166.039 46.8509C164.648 48.7792 162.145 50.4321 159.363 51.534C156.582 52.3604 153.801 52.9114 150.463 52.9114H122.094V30.8734H151.576C152.41 30.8734 153.245 30.8734 154.079 30.5979C155.192 30.047 155.748 29.496 155.748 28.9451C155.748 28.1186 155.192 27.5677 154.079 27.0167C153.245 26.7413 152.41 26.7413 151.576 26.7413H122.094V17.6506H150.463C153.801 17.6506 156.582 18.2016 159.363 19.028C162.423 20.1299 164.648 21.7827 166.039 23.9865C167.151 25.3639 167.707 27.2922 167.707 28.9451C167.707 31.4243 166.595 33.6281 164.648 35.5565Z" fill="#065C9C"/>
<path fill-rule="evenodd" clip-rule="evenodd" d="M6.11884 41.0457C6.11884 40.4948 5.84071 38.291 5.84071 37.4645C5.84071 37.1891 6.11884 36.9136 6.11884 36.6381C6.39697 27.5475 13.0721 20.3851 21.6941 19.0077C24.1972 17.0794 26.7004 15.1511 29.4817 13.2228C27.8129 12.9473 26.1441 12.6718 24.4753 12.6718C10.847 12.6718 0 23.9663 0 37.4645C0 40.4948 0.556258 43.525 1.66877 46.2797C1.9469 46.8307 2.22503 47.6571 2.50316 48.4835C4.72819 52.8911 8.06574 56.4723 12.5158 58.9515C10.2908 55.6459 9.45638 54.544 10.0126 51.2383C11.9595 33.0569 38.3818 17.6304 50.6195 12.6718L51.1757 11.2945C52.8445 7.43781 54.5133 3.58117 56.182 0C25.866 14.0492 11.9595 29.4758 6.11884 41.0457Z" fill="#065C9C"/>
<path fill-rule="evenodd" clip-rule="evenodd" d="M47.0012 27.5679C46.4449 28.9453 45.8887 30.5982 45.3324 31.9755L45.0543 32.802H44.2199C43.6637 33.0774 43.1074 33.0774 42.5511 33.0774C42.8293 34.4548 43.1074 36.1077 43.1074 37.485C43.1074 44.9228 38.9355 51.2588 32.8166 54.289C32.2604 54.5644 31.7041 54.8399 31.1479 55.1154C4.72561 60.0739 21.6915 33.3529 43.9418 31.4246C45.3324 27.5679 47.0012 22.8849 48.67 17.9263C31.7041 23.7113 13.3476 40.7907 12.7913 52.0852C12.5132 57.0437 16.6852 61.4513 23.6384 62.2777C24.7509 62.2777 25.5853 62.2777 27.8103 62.0023C39.7698 60.3494 48.9481 50.1569 48.9481 37.485C48.9481 33.9039 48.1137 30.5982 47.0012 27.5679Z" fill="#626D75"/>
</svg>
