<svg width="81" height="90" viewBox="0 0 81 90" fill="none" xmlns="http://www.w3.org/2000/svg">
<path fill-rule="evenodd" clip-rule="evenodd" d="M8.82178 59.3168C8.82178 58.5206 8.42079 55.3358 8.42079 54.1415C8.42079 53.7434 8.82178 53.3453 8.82178 52.9472C9.22277 39.8099 18.8465 29.4593 31.2772 27.4688C34.8861 24.6821 38.495 21.8954 42.505 19.1088C40.099 18.7107 37.6931 18.3126 35.2871 18.3126C15.6386 18.3126 0 34.6346 0 54.1415C0 58.5206 0.80198 62.8997 2.40594 66.8806C2.80693 67.6768 3.20792 68.8711 3.60891 70.0654C6.81683 76.435 11.6287 81.6103 18.0446 85.1932C14.8366 80.416 13.6337 78.8236 14.4356 74.0464C17.2426 47.7719 55.3366 25.4783 72.9802 18.3126L73.7822 16.3221C76.1881 10.7487 78.5941 5.17529 81 0C37.2921 20.3031 17.2426 42.5966 8.82178 59.3168Z" fill="white"/>
<path fill-rule="evenodd" clip-rule="evenodd" d="M67.7636 39.8395C66.9616 41.83 66.1596 44.2186 65.3577 46.2091L64.9567 47.4034H63.7537C62.9517 47.8015 62.1497 47.8015 61.3478 47.8015C61.7487 49.792 62.1497 52.1806 62.1497 54.1711C62.1497 64.9198 56.1349 74.076 47.3131 78.4551C46.5111 78.8532 45.7091 79.2513 44.9072 79.6494C6.81311 86.8152 31.2735 48.1996 63.3527 45.4129C65.3577 39.8395 67.7636 33.0718 70.1695 25.9061C45.7091 34.2661 19.2438 58.9483 18.4418 75.2703C18.0408 82.4361 24.0557 88.8057 34.0804 90C35.6844 90 36.8874 90 40.0953 89.6019C57.3379 87.2133 70.5705 72.4836 70.5705 54.1711C70.5705 48.9958 69.3676 44.2186 67.7636 39.8395Z" fill="white"/>
</svg>
