<svg width="52" height="17" viewBox="0 0 52 17" fill="none" xmlns="http://www.w3.org/2000/svg">
<path d="M19.89 16.9953C20.2214 16.9953 20.4932 16.7317 20.4932 16.4021V0.593146C20.4932 0.271859 20.2214 0 19.89 0C19.5587 0 19.2868 0.263621 19.2868 0.593146V16.4104C19.2953 16.7317 19.5587 16.9953 19.89 16.9953ZM51.3919 16.9953C51.7232 16.9953 51.9951 16.7317 51.9951 16.4021V11.1215C52.0631 9.33382 51.4259 7.73562 50.0241 6.92004C48.0106 5.71727 45.6658 6.54109 45.6658 6.54109C45.6658 6.54109 44.8503 6.86237 45.1646 7.42257C45.4025 7.84271 45.9632 7.57085 45.9632 7.57085C45.9632 7.57085 47.9597 6.85414 49.5823 7.991C50.4744 8.6171 50.7802 9.70453 50.7802 10.7178C50.7802 12.6126 50.7802 14.5074 50.7802 16.4021C50.7887 16.7317 51.0521 16.9953 51.3919 16.9953ZM9.50835 10.7178H5.71929C5.38796 10.7178 5.1076 10.9814 5.1076 11.3027C5.1076 11.624 5.37946 11.8876 5.71929 11.8876H10.0266L12.125 16.5834C12.2609 16.88 12.6178 17.02 12.9151 16.8882C13.2209 16.7564 13.3569 16.4104 13.2209 16.1138L6.99364 2.15016C6.85771 1.85358 6.50089 1.71353 6.19505 1.84534C5.8892 1.97715 5.75327 2.32316 5.8892 2.61973L9.50835 10.7178ZM28.0034 7.10952C28.2073 6.8459 28.1563 6.48342 27.8929 6.2857C27.6296 6.08799 27.2473 6.14565 27.0434 6.40104L25.1913 8.7901C24.9874 9.05372 25.0384 9.4162 25.3018 9.61391C25.5651 9.80339 25.9474 9.75396 26.1513 9.49858L28.0034 7.10952ZM5.66832 6.55756C5.80425 6.26099 5.65982 5.91499 5.36247 5.78318C5.05663 5.65137 4.69981 5.79141 4.56388 6.08799L0.0526906 16.1138C-0.0832397 16.4104 0.0526906 16.7564 0.358534 16.8882C0.664377 17.02 1.02119 16.88 1.15713 16.5834L5.66832 6.55756ZM15.8971 16.9953C16.2284 16.9953 16.5003 16.7317 16.5003 16.4021V0.593146C16.5003 0.271859 16.2284 0 15.8971 0C15.5657 0 15.2939 0.263621 15.2939 0.593146V16.4104C15.3024 16.7317 15.5657 16.9953 15.8971 16.9953ZM39.9568 13.0986C39.9568 13.0986 39.9992 12.5302 39.4555 12.489C38.9118 12.4478 38.8098 12.9504 38.8098 12.9504C38.8098 12.9504 38.6994 14.0296 37.3316 15.0758C36.1252 15.9985 34.6385 15.9326 34.6385 15.9326L34.647 16.9953C34.647 16.9953 36.5075 17.1436 38.1557 15.776C39.8038 14.4003 39.9568 13.0986 39.9568 13.0986ZM31.1298 15.7678C32.7779 17.1353 34.6555 16.9871 34.6555 16.9871L34.647 15.9161C34.647 15.9161 33.1602 15.9902 31.9539 15.0676C30.5946 14.0213 30.4756 12.9421 30.4756 12.9421C30.4756 12.9421 30.3652 12.4396 29.8299 12.4808C29.2862 12.522 29.3287 13.0904 29.3287 13.0904C29.3287 13.0904 29.4816 14.4003 31.1298 15.7678ZM39.4555 10.6602C39.9992 10.619 39.9568 10.0505 39.9568 10.0505C39.9568 10.0505 39.8038 8.74891 38.1557 7.38138C36.5075 6.01384 34.647 6.16213 34.647 6.16213L34.6385 7.22485C34.6385 7.22485 36.1252 7.15895 37.3316 8.08162C38.6909 9.12786 38.8098 10.2071 38.8098 10.2071C38.8098 10.2071 38.9118 10.7096 39.4555 10.6602ZM34.647 7.23309L34.6555 6.16213C34.6555 6.16213 32.7779 6.01384 31.1298 7.38138C29.4816 8.74891 29.3287 10.0505 29.3287 10.0505C29.3287 10.0505 29.2862 10.619 29.8299 10.6602C30.3737 10.7013 30.4756 10.1988 30.4756 10.1988C30.4756 10.1988 30.5861 9.11963 31.9539 8.07338C33.1602 7.15071 34.647 7.23309 34.647 7.23309ZM27.9864 16.847C28.2498 16.6493 28.2922 16.2868 28.0883 16.0232L23.3138 9.81987C23.1099 9.56448 22.7276 9.51506 22.4642 9.71277C22.2008 9.91049 22.1584 10.273 22.3623 10.5366L27.1368 16.7399C27.3492 16.9953 27.723 17.0447 27.9864 16.847ZM42.7094 16.9953C43.0407 16.9953 43.3125 16.7317 43.3125 16.4021V6.8459C43.3125 6.52461 43.0407 6.25275 42.7094 6.25275C42.378 6.25275 42.1062 6.51637 42.1062 6.8459V16.4021C42.1147 16.7317 42.378 16.9953 42.7094 16.9953Z" fill="#CFD3D5"/>
</svg>
