<svg width="50" height="38" viewBox="0 0 50 38" fill="none" xmlns="http://www.w3.org/2000/svg">
    <path d="M15.2813 3.8147e-06C15.1211 0.0351598 14.9688 0.109379 14.8438 0.218754L4.62505 8.0625C4.61333 8.07422 4.60552 8.08203 4.5938 8.09375C4.58208 8.09375 4.57427 8.09375 4.56255 8.09375C4.48443 8.13672 4.41021 8.1875 4.3438 8.25C4.33208 8.26172 4.32427 8.26953 4.31255 8.28125C4.29302 8.28907 4.26958 8.30078 4.25005 8.3125C4.25005 8.32422 4.25005 8.33203 4.25005 8.34375C4.2149 8.38282 4.18365 8.42578 4.1563 8.46875C4.14458 8.48828 4.13286 8.51172 4.12505 8.53125C4.11333 8.54297 4.10552 8.55078 4.0938 8.5625C4.07036 8.61328 4.04693 8.66407 4.0313 8.71875L0.0938013 16.5625C-0.101512 16.9492 -0.0272925 17.4141 0.277395 17.7227C0.585989 18.0273 1.05083 18.1016 1.43755 17.9063L4.00005 16.625V37C4.00005 37.5508 4.44927 38 5.00005 38H35C35.0118 38 35.0196 38 35.0313 38C35.0938 37.9961 35.1563 37.9844 35.2188 37.9688C35.25 37.9609 35.2813 37.9492 35.3125 37.9375C35.4375 37.8984 35.5547 37.8359 35.6563 37.75C35.6797 37.7305 35.6993 37.7109 35.7188 37.6875C35.7422 37.668 35.7618 37.6484 35.7813 37.625L35.8438 37.5312C35.8672 37.5117 35.8868 37.4922 35.9063 37.4688L43.7813 27.625C43.9219 27.4492 44 27.2266 44 27V17.4375L49.7188 11.7188C50.0352 11.3867 50.086 10.8867 49.8438 10.5L44 0.781254C43.9649 0.621098 43.8907 0.468754 43.7813 0.343754C43.7735 0.324223 43.7618 0.300785 43.75 0.281254C43.7383 0.281254 43.7305 0.281254 43.7188 0.281254C43.711 0.261723 43.6993 0.238285 43.6875 0.218754C43.6758 0.218754 43.668 0.218754 43.6563 0.218754C43.6368 0.195317 43.6172 0.175785 43.5938 0.156254C43.5235 0.117192 43.4532 0.0859418 43.375 0.0625038C43.3555 0.0507848 43.3321 0.0390668 43.3125 0.0312538C43.3008 0.0312538 43.293 0.0312538 43.2813 0.0312538C43.2618 0.0195348 43.2383 0.00781681 43.2188 3.8147e-06C43.2071 3.8147e-06 43.1993 3.8147e-06 43.1875 3.8147e-06C43.168 3.8147e-06 43.1446 3.8147e-06 43.125 3.8147e-06C43.1133 3.8147e-06 43.1055 3.8147e-06 43.0938 3.8147e-06C43.0743 3.8147e-06 43.0508 3.8147e-06 43.0313 3.8147e-06C43.0196 3.8147e-06 43.0118 3.8147e-06 43 3.8147e-06H15.4688C15.4376 3.8147e-06 15.4063 3.8147e-06 15.3751 3.8147e-06C15.3438 3.8147e-06 15.3126 3.8147e-06 15.2813 3.8147e-06ZM15.7813 2H40.5625L34.5625 8H7.93755L15.7813 2ZM42.8125 2.625L47.75 10.8125L41.1875 17.375L36.25 9.1875L42.8125 2.625ZM6.00005 10H34V36H6.00005V15.125C6.00396 15.082 6.00396 15.043 6.00005 15V10ZM36 12.5625L40.1563 19.5C40.3086 19.7656 40.5782 19.9492 40.8829 19.9922C41.1875 20.0352 41.4961 19.9336 41.7188 19.7188L42 19.4375V26.6562L36 34.1562V12.5625ZM4.00005 13.25V14.375L3.25005 14.75L4.00005 13.25ZM14.7188 14C14.168 14.0781 13.7813 14.5898 13.8594 15.1406C13.9376 15.6914 14.4493 16.0781 15.0001 16H25.0001C25.3594 16.0039 25.6954 15.8164 25.879 15.5039C26.0586 15.1914 26.0586 14.8086 25.879 14.4961C25.6954 14.1836 25.3594 13.9961 25.0001 14H15.0001C14.9688 14 14.9376 14 14.9063 14C14.8751 14 14.8438 14 14.8126 14C14.7813 14 14.7501 14 14.7188 14Z"/>
</svg>
