<svg width="15" height="15" viewBox="0 0 15 15" fill="none" xmlns="http://www.w3.org/2000/svg">
<path d="M4.91789 10.5429C4.52737 10.9334 4.52737 11.5666 4.91789 11.9571C5.30842 12.3476 5.94158 12.3476 6.33211 11.9571L4.91789 10.5429ZM9.375 7.5L10.0821 8.20711C10.2696 8.01957 10.375 7.76522 10.375 7.5C10.375 7.23478 10.2696 6.98043 10.0821 6.79289L9.375 7.5ZM6.33211 3.04289C5.94158 2.65237 5.30842 2.65237 4.91789 3.04289C4.52737 3.43342 4.52737 4.06658 4.91789 4.45711L6.33211 3.04289ZM6.33211 11.9571L10.0821 8.20711L8.66789 6.79289L4.91789 10.5429L6.33211 11.9571ZM10.0821 6.79289L6.33211 3.04289L4.91789 4.45711L8.66789 8.20711L10.0821 6.79289Z" fill="#81B3D5"/>
</svg>
