<svg width="105" height="105" viewBox="0 0 105 105" fill="none" xmlns="http://www.w3.org/2000/svg">
<path d="M22.4 0.298706L1.29875 21.4L31.3994 51.5006L33.8006 49.0993L6.10125 21.4L22.4 5.10121L50.0994 32.8006L52.5006 30.3993L22.4 0.298706ZM94.7456 1.01058C92.3763 1.01058 90.0069 1.91371 88.2006 3.70933L86.7663 5.15433L85.3 3.69871L72.6988 16.3L10.7338 78.2543L0.735626 104.254L26.7456 94.2556L101.301 19.7L99.8456 18.2337L101.291 16.81C104.032 14.0581 104.648 9.98871 103.214 6.60995H104.181L101.291 3.70933C99.495 1.91371 97.1256 1.01058 94.7456 1.01058ZM94.7456 4.38933C96.2331 4.38933 97.7313 4.96308 98.8788 6.12121C101.184 8.41621 101.184 12.0925 98.8788 14.3981L97.4444 15.8431L89.1569 7.56621L90.6019 6.12121C91.76 4.96308 93.2475 4.38933 94.7456 4.38933ZM85.3 8.50121L96.4987 19.7L88.8169 27.3712L77.6288 16.1831L85.3 8.50121ZM24.1 12.9C23.165 12.9 22.4 13.665 22.4 14.6C22.4 15.535 23.165 16.3 24.1 16.3C25.035 16.3 25.8 15.535 25.8 14.6C25.8 13.665 25.035 12.9 24.1 12.9ZM19 18C18.065 18 17.3 18.765 17.3 19.7C17.3 20.635 18.065 21.4 19 21.4C19.935 21.4 20.7 20.635 20.7 19.7C20.7 18.765 19.935 18 19 18ZM29.2 18C28.265 18 27.5 18.765 27.5 19.7C27.5 20.635 28.265 21.4 29.2 21.4C30.135 21.4 30.9 20.635 30.9 19.7C30.9 18.765 30.135 18 29.2 18ZM75.1 18.7012L86.2988 29.9L26.9156 89.2831C26.6181 88.3481 26.1506 87.3493 25.3006 86.4993C24.0575 85.2456 22.485 84.7887 21.2419 84.5443C20.8488 84.4699 20.8488 84.5018 20.53 84.4699C20.4981 84.1512 20.53 84.1512 20.4556 83.7581C20.2113 82.515 19.7544 80.9425 18.5006 79.6993C17.6506 78.8493 16.6519 78.3818 15.7169 78.0843L75.1 18.7012ZM34.3 23.1C33.365 23.1 32.6 23.865 32.6 24.8C32.6 25.735 33.365 26.5 34.3 26.5C35.235 26.5 36 25.735 36 24.8C36 23.865 35.235 23.1 34.3 23.1ZM75.1 23.1C74.165 23.1 73.4 23.865 73.4 24.8C73.4 25.735 74.165 26.5 75.1 26.5C76.035 26.5 76.8 25.735 76.8 24.8C76.8 23.865 76.035 23.1 75.1 23.1ZM29.2 28.2C28.265 28.2 27.5 28.965 27.5 29.9C27.5 30.835 28.265 31.6 29.2 31.6C30.135 31.6 30.9 30.835 30.9 29.9C30.9 28.965 30.135 28.2 29.2 28.2ZM39.4 28.2C38.465 28.2 37.7 28.965 37.7 29.9C37.7 30.835 38.465 31.6 39.4 31.6C40.335 31.6 41.1 30.835 41.1 29.9C41.1 28.965 40.335 28.2 39.4 28.2ZM70 28.2C69.065 28.2 68.3 28.965 68.3 29.9C68.3 30.835 69.065 31.6 70 31.6C70.935 31.6 71.7 30.835 71.7 29.9C71.7 28.965 70.935 28.2 70 28.2ZM44.5 33.3C43.565 33.3 42.8 34.065 42.8 35C42.8 35.935 43.565 36.7 44.5 36.7C45.435 36.7 46.2 35.935 46.2 35C46.2 34.065 45.435 33.3 44.5 33.3ZM64.9 33.3C63.965 33.3 63.2 34.065 63.2 35C63.2 35.935 63.965 36.7 64.9 36.7C65.835 36.7 66.6 35.935 66.6 35C66.6 34.065 65.835 33.3 64.9 33.3ZM39.4 38.4C38.465 38.4 37.7 39.165 37.7 40.1C37.7 41.035 38.465 41.8 39.4 41.8C40.335 41.8 41.1 41.035 41.1 40.1C41.1 39.165 40.335 38.4 39.4 38.4ZM59.8 38.4C58.865 38.4 58.1 39.165 58.1 40.1C58.1 41.035 58.865 41.8 59.8 41.8C60.735 41.8 61.5 41.035 61.5 40.1C61.5 39.165 60.735 38.4 59.8 38.4ZM54.7 43.5C53.765 43.5 53 44.265 53 45.2C53 46.135 53.765 46.9 54.7 46.9C55.635 46.9 56.4 46.135 56.4 45.2C56.4 44.265 55.635 43.5 54.7 43.5ZM49.6 48.6C48.665 48.6 47.9 49.365 47.9 50.3C47.9 51.235 48.665 52 49.6 52C50.535 52 51.3 51.235 51.3 50.3C51.3 49.365 50.535 48.6 49.6 48.6ZM74.6006 52.4993L72.1994 54.9006L99.8988 82.6L83.6 98.8987L55.9006 71.1993L53.4994 73.6006L83.6 103.701L104.701 82.6L74.6006 52.4993ZM44.5 53.7C43.565 53.7 42.8 54.465 42.8 55.4C42.8 56.335 43.565 57.1 44.5 57.1C45.435 57.1 46.2 56.335 46.2 55.4C46.2 54.465 45.435 53.7 44.5 53.7ZM39.4 58.7999C38.465 58.7999 37.7 59.565 37.7 60.5C37.7 61.435 38.465 62.2 39.4 62.2C40.335 62.2 41.1 61.435 41.1 60.5C41.1 59.565 40.335 58.7999 39.4 58.7999ZM70 59.3525C69.065 59.3525 68.3 60.1068 68.3 61.0525C68.3 61.9874 69.065 62.7525 70 62.7525C70.935 62.7525 71.7 61.9874 71.7 61.0525C71.7 60.1068 70.935 59.3525 70 59.3525ZM34.3 63.9C33.365 63.9 32.6 64.6649 32.6 65.6C32.6 66.535 33.365 67.2999 34.3 67.2999C35.235 67.2999 36 66.535 36 65.6C36 64.6649 35.235 63.9 34.3 63.9ZM75.1 63.9C74.165 63.9 73.4 64.6649 73.4 65.6C73.4 66.535 74.165 67.2999 75.1 67.2999C76.035 67.2999 76.8 66.535 76.8 65.6C76.8 64.6649 76.035 63.9 75.1 63.9ZM64.9 64.4525C63.965 64.4525 63.2 65.2068 63.2 66.1525C63.2 67.0874 63.965 67.8524 64.9 67.8524C65.835 67.8524 66.6 67.0874 66.6 66.1525C66.6 65.2068 65.835 64.4525 64.9 64.4525ZM29.2 69C28.265 69 27.5 69.765 27.5 70.7C27.5 71.6349 28.265 72.3999 29.2 72.3999C30.135 72.3999 30.9 71.6349 30.9 70.7C30.9 69.765 30.135 69 29.2 69ZM80.2 69.5525C79.265 69.5525 78.5 70.3068 78.5 71.2524C78.5 72.1875 79.265 72.9525 80.2 72.9525C81.135 72.9525 81.9 72.1875 81.9 71.2524C81.9 70.3068 81.135 69.5525 80.2 69.5525ZM24.1 74.1C23.165 74.1 22.4 74.865 22.4 75.7999C22.4 76.7349 23.165 77.4999 24.1 77.4999C25.035 77.4999 25.8 76.7349 25.8 75.7999C25.8 74.865 25.035 74.1 24.1 74.1ZM85.3 74.1C84.365 74.1 83.6 74.865 83.6 75.7999C83.6 76.7349 84.365 77.4999 85.3 77.4999C86.235 77.4999 87 76.7349 87 75.7999C87 74.865 86.235 74.1 85.3 74.1ZM75.1 74.6525C74.165 74.6525 73.4 75.4068 73.4 76.3524C73.4 77.2875 74.165 78.0525 75.1 78.0525C76.035 78.0525 76.8 77.2875 76.8 76.3524C76.8 75.4068 76.035 74.6525 75.1 74.6525ZM90.4 79.7524C89.465 79.7524 88.7 80.5068 88.7 81.4524C88.7 82.3875 89.465 83.1525 90.4 83.1525C91.335 83.1525 92.1 82.3875 92.1 81.4524C92.1 80.5068 91.335 79.7524 90.4 79.7524ZM13.3263 81.0168C13.4856 81.0381 13.6025 81.0487 13.7831 81.0806C14.665 81.2612 15.6425 81.6543 16.0994 82.1006C16.5456 82.5574 16.9388 83.535 17.1194 84.4168C17.3 85.3093 17.3 85.9999 17.3 85.9999V87.7H19C19 87.7 19.6906 87.7 20.5831 87.8806C21.465 88.0612 22.4425 88.4543 22.8994 88.9006C23.3456 89.3575 23.7388 90.3349 23.9194 91.2168C23.9513 91.3974 23.9619 91.5143 23.9831 91.6737L12.2106 96.2106L8.78938 92.7893L13.3263 81.0168ZM85.3 84.8524C84.365 84.8524 83.6 85.6068 83.6 86.5525C83.6 87.4874 84.365 88.2524 85.3 88.2524C86.235 88.2524 87 87.4874 87 86.5525C87 85.6068 86.235 84.8524 85.3 84.8524Z" fill="#0867AD"/>
</svg>
