<svg width="365" height="549" viewBox="0 0 365 549" fill="none" xmlns="http://www.w3.org/2000/svg">
<g clip-path="url(#clip0)">
<path d="M313 301.496L313.385 80.1565L334 80.1218L333.616 301.46L313 301.496Z" stroke="#0867AD" stroke-width="12"/>
<path d="M312.769 301.214L312.789 289.409L333.343 289.374L333.323 301.179L312.769 301.214Z" stroke="#0867AD" stroke-width="12"/>
<path d="M312.211 61.0896L311 56.118L336 56.0812L334.77 61.0564L312.211 61.0896Z" stroke="#0867AD" stroke-width="12"/>
<path d="M334.157 8L337 35.0042L310 35.0457L312.945 8.03398L334.157 8Z" stroke="#0867AD" stroke-width="12"/>
<path d="M353.986 325.432L292 325.536L292.014 317.628L354 317.523L353.986 325.432Z" stroke="#0867AD" stroke-width="12"/>
<path d="M287.661 463.421V463.344L287.66 463.266C287.516 455.575 289.761 448.016 294.086 441.649C296.107 438.791 297.538 434.972 298.6 431.398C299.728 427.607 300.659 423.318 301.401 419.083C302.872 410.676 303.71 401.82 303.719 396.473V396.47L303.832 342.159L342.131 342.093L342.037 396.342C342.028 401.688 342.834 410.543 344.279 418.948C345.007 423.182 345.925 427.47 347.043 431.263C348.096 434.835 349.519 438.657 351.541 441.52C355.832 447.856 358.051 455.396 357.881 463.093L357.879 463.169V463.244L357.779 506.509V506.513C357.762 516.309 353.72 525.685 346.605 532.396L346.604 532.398C339.51 539.096 330.002 542.542 320.339 541.931C301.584 540.269 287.309 524.319 287.589 505.316L287.59 505.266V505.217L287.661 463.421Z" stroke="#0867AD" stroke-width="12"/>
<path d="M357.88 463.213V463.23V463.247L357.795 506.495C357.777 516.295 353.734 525.671 346.619 532.383L346.618 532.384C339.524 539.082 330.016 542.528 320.353 541.917C301.598 540.255 287.323 524.305 287.603 505.302L287.604 505.253V505.203L287.675 463.407V463.392V463.376C287.67 461.322 287.815 459.27 288.106 457.239L357.477 457.126C357.757 459.141 357.893 461.175 357.88 463.213V463.213Z" stroke="#0867AD" stroke-width="12"/>
<path d="M319.353 533.801C331.795 534.615 344.047 530.713 353.752 522.953C351.934 526.441 349.536 529.637 346.622 532.386L346.62 532.387C339.526 539.085 330.019 542.531 320.356 541.92C307.784 540.806 297.225 533.272 291.714 522.701C299.331 528.873 308.779 532.888 319.198 533.789L319.276 533.796L319.353 533.801Z" stroke="#0867AD" stroke-width="12"/>
<mask id="mask0" mask-type="alpha" maskUnits="userSpaceOnUse" x="315" y="449" width="15" height="69">
<path d="M315.932 449.655L329.659 449.628L329.544 517.349L315.82 517.373L315.932 449.655Z" fill="white"/>
</mask>
<g mask="url(#mask0)">
</g>
<path d="M0.00412588 473.49C-0.0510741 493.359 7.84583 512.429 21.9388 526.444C41.9448 546.479 71.5448 553.512 98.4258 544.62C125.306 535.728 144.872 512.429 148.981 484.415C153.094 456.401 141.045 428.464 117.851 412.223L117.848 127.873C137.891 113.918 149.813 91.0271 149.755 66.6058C149.675 39.9621 135.5 15.3533 112.496 1.91152C110.334 0.654204 107.663 0.645935 105.495 1.89222C103.325 3.14127 101.991 5.45188 101.988 7.95274V82.2506L74.8948 97.901L47.7988 82.2534L47.7878 7.94998C47.7878 5.44637 46.4538 3.13576 44.2808 1.88946C42.1138 0.643174 39.4418 0.651445 37.2828 1.91152C15.1828 14.7136 1.15083 37.9107 0.0675261 63.4239C-1.01607 88.9426 10.9998 113.245 31.9308 127.873V412.226C11.8828 426.17 -0.0510741 449.066 0.00412588 473.49ZM45.9158 124.117C45.9188 122.262 45.1798 120.486 43.8728 119.173C43.4978 118.804 43.0838 118.473 42.6428 118.192C26.4848 108.144 15.9718 91.1015 14.2398 72.1534C12.5058 53.2081 19.7518 34.5413 33.8138 21.7254L33.8198 86.2901C33.8138 88.7882 35.1488 91.0933 37.3098 92.3395L71.3958 112.021C73.5578 113.267 76.2178 113.265 78.3798 112.018L112.466 92.3423C114.625 91.0933 115.956 88.7854 115.959 86.2901L115.965 21.7254C130.035 34.5385 137.284 53.2081 135.553 72.1562C133.818 91.107 123.305 108.15 107.15 118.2C105.109 119.479 103.874 121.718 103.874 124.123L103.882 415.973C103.882 418.378 105.12 420.614 107.158 421.896C130.212 436.286 140.94 464.209 133.457 490.337C125.976 516.463 102.093 534.473 74.9118 534.479C47.7358 534.484 23.8438 516.488 16.3468 490.362C8.85483 464.237 19.5758 436.311 42.6208 421.907C44.6588 420.63 45.8968 418.394 45.8968 415.984L45.9158 124.117ZM33.8278 493.164C33.8308 495.659 35.1598 497.964 37.3208 499.21L71.4068 518.892C73.5688 520.138 76.2318 520.138 78.3908 518.895L112.477 499.213C114.639 497.967 115.97 495.659 115.97 493.161L115.973 453.801C115.979 451.302 114.644 448.992 112.48 447.748L78.3938 428.089C76.2268 426.832 73.5548 426.834 71.3878 428.086L37.2988 447.765C35.1378 449.011 33.8058 451.319 33.8088 453.814L33.8278 493.164ZM74.9028 442.19L101.996 457.834L101.994 489.127L74.9028 504.775L47.8068 489.127L47.8048 457.834L74.9028 442.19ZM75.3498 399.722C87.8868 399.697 98.0418 389.542 98.0638 377.007V171.418C98.0638 158.873 87.8958 148.704 75.3468 148.707C62.8008 148.707 52.6328 158.876 52.6328 171.421V376.999C52.6568 389.536 62.8148 399.694 75.3498 399.716V399.722ZM75.3498 385.748C70.5158 385.745 66.5978 381.827 66.5958 376.994L66.6088 171.424C66.6088 166.588 70.5268 162.67 75.3638 162.67C80.1938 162.67 84.1148 166.59 84.1148 171.421L84.1038 376.994C84.1068 381.827 80.1858 385.748 75.3498 385.748Z" fill="#0867AD"/>
</g>
<defs>
<clipPath id="clip0">
<rect width="364.722" height="548.598" fill="white"/>
</clipPath>
</defs>
</svg>
