<svg width="28" height="28" viewBox="0 0 28 28" fill="none" xmlns="http://www.w3.org/2000/svg">
<path d="M6.08126 0.770902C5.61953 0.733022 5.10334 0.867969 4.62977 1.19942C4.21066 1.49062 3.30851 2.20797 2.46555 3.01765C2.04644 3.4225 1.6439 3.84391 1.33371 4.25585C1.02116 4.67017 0.748854 5.0466 0.765429 5.59822C0.782003 6.09066 0.831729 7.54904 1.88069 9.78395C2.93202 12.0189 4.96837 15.0848 8.93927 19.0574C12.9149 23.0325 15.9789 25.0685 18.2142 26.1173C20.447 27.1685 21.908 27.2182 22.4029 27.2348C22.9499 27.249 23.3287 26.9767 23.7407 26.6642C24.1551 26.3517 24.5742 25.9539 24.9791 25.5325C25.7866 24.6897 26.504 23.7877 26.7953 23.371C27.4606 22.424 27.3493 21.3066 26.6106 20.7857C26.1441 20.459 21.8678 17.6133 21.2237 17.2179C20.5702 16.8202 19.8196 17.0001 19.1471 17.3552C18.6191 17.6346 17.1865 18.4537 16.7792 18.6881C16.4714 18.494 15.3041 17.7174 12.7918 15.2055C10.2795 12.696 9.50282 11.5288 9.30865 11.221C9.54307 10.8114 10.36 9.38858 10.6441 8.85116C10.9946 8.18116 11.1935 7.4212 10.772 6.7654C10.5968 6.48603 9.79406 5.26678 8.98662 4.04278C8.17682 2.81878 7.40726 1.65871 7.20836 1.38172V1.37935C6.9479 1.01949 6.54063 0.808782 6.08126 0.770902ZM13.9946 1.98069V3.18338C19.964 3.18338 24.8205 8.03674 24.8205 14.0052H26.0233C26.0233 7.37621 20.627 1.98069 13.9946 1.98069ZM5.96997 1.99963C6.13573 2.02094 6.23281 2.08486 6.23281 2.08486C6.32989 2.21981 7.17285 3.48405 7.98265 4.70568C8.79009 5.92731 9.61411 7.18208 9.75854 7.40936C9.77985 7.44487 9.813 7.84498 9.57859 8.29007V8.29243C9.31339 8.79671 8.075 10.9606 8.075 10.9606L7.90451 11.2613L8.07973 11.5619C8.07973 11.5619 9.0032 13.1198 11.9393 16.0555C14.8778 18.9911 16.4359 19.9168 16.4359 19.9168L16.7366 20.0944L17.0397 19.9216C17.0397 19.9216 19.1992 18.6857 19.7083 18.4182C20.1511 18.1862 20.5512 18.217 20.5986 18.2454C21.013 18.5011 25.635 21.5717 25.9192 21.7706C25.9286 21.7777 26.1796 22.1589 25.8126 22.6797H25.8102C25.59 22.9969 24.8655 23.9155 24.1125 24.6992C23.7336 25.0922 23.3477 25.4591 23.0185 25.7054C22.6894 25.9516 22.3958 26.0297 22.4431 26.0321C21.9293 26.0155 20.7999 26.0037 18.7256 25.0283C16.6514 24.0552 13.6916 22.1091 9.78933 18.2051C5.89184 14.3059 3.94309 11.3465 2.96753 9.27021C1.99671 7.19628 1.98487 6.06699 1.9683 5.55798C1.97067 5.60533 2.04881 5.30939 2.29506 4.98031C2.54132 4.65123 2.90597 4.26059 3.29667 3.88179C4.08516 3.12893 5.00152 2.40447 5.31881 2.1843V2.18666C5.57928 2.00437 5.80659 1.98069 5.96997 1.99963ZM13.9946 5.31413V6.51681C18.1265 6.51681 21.4865 9.87629 21.4865 14.0052H22.6894C22.6894 9.21102 18.7895 5.31413 13.9946 5.31413ZM13.9946 8.5931V9.79579C16.3151 9.79579 18.2047 11.6851 18.2047 14.0052H19.4076C19.4076 11.0198 16.9781 8.5931 13.9946 8.5931Z" fill="white"/>
</svg>
