<svg width="16" height="8" viewBox="0 0 16 8" fill="none" xmlns="http://www.w3.org/2000/svg">
<path d="M7.69794 0.0015164C6.83585 -0.00489081 6.11257 0.00151616 5.69614 0.174522C5.42582 0.289861 5.21395 0.55898 5.33815 0.571796C5.49888 0.591018 5.86417 0.655095 6.05412 0.885769C6.30252 1.18052 6.28791 1.84051 6.28791 1.84051C6.28791 1.84051 6.42672 3.65386 5.95915 3.88454C5.63038 4.04473 5.19203 3.72435 4.23497 2.27622C3.74548 1.53294 3.37288 0.712763 3.37288 0.712763C3.37288 0.712763 3.30713 0.55898 3.17562 0.482089C3.0222 0.379567 2.81033 0.347529 2.81033 0.347529L0.5163 0.360343C0.5163 0.360343 0.180232 0.37316 0.0560309 0.501313C-0.0608624 0.623058 0.0414212 0.860139 0.0414212 0.860139C0.0414212 0.860139 1.83135 4.53171 3.86237 6.3771C5.71805 8.08153 7.82944 7.9662 7.82944 7.9662H8.7865C8.7865 7.9662 9.07874 7.94057 9.22485 7.7996C9.35636 7.67145 9.35636 7.43436 9.35636 7.43436C9.35636 7.43436 9.33444 6.30662 9.93352 6.14002C10.518 5.97983 11.2705 7.22932 12.0668 7.70989C12.6732 8.07512 13.1335 7.99183 13.1335 7.99183L15.2741 7.9662C15.2741 7.9662 16.3846 7.90853 15.8586 7.13321C15.8147 7.07554 15.5517 6.56292 14.2732 5.52489C12.9289 4.43559 13.1116 4.6086 14.7261 2.72476C15.7051 1.57139 16.0996 0.872953 15.9754 0.571796C15.8586 0.283452 15.1353 0.360343 15.1353 0.360343L12.7317 0.37316C12.7317 0.37316 12.549 0.353936 12.4175 0.418013C12.2933 0.488496 12.2056 0.648688 12.2056 0.648688C12.2056 0.648688 11.8257 1.53935 11.3216 2.29545C10.2477 3.89095 9.81663 3.98065 9.64129 3.87813C9.23947 3.64746 9.33444 2.94902 9.33444 2.45564C9.33444 0.904993 9.60476 0.26423 8.81573 0.097631C8.55272 0.0399628 8.36277 0.0015164 7.69794 0.0015164Z" fill="white"/>
</svg>
