<svg width="16" height="10" viewBox="0 0 16 10" fill="none" xmlns="http://www.w3.org/2000/svg">
<path d="M15.5541 1.71856C15.4055 1.03175 14.6987 0.531135 13.8831 0.372405C12.6579 0.155677 10.3924 0 7.942 0C5.49524 0 3.19348 0.155677 1.96828 0.372405C1.1527 0.531135 0.445854 0.998168 0.297236 1.71856C0.148618 2.5 0 3.5928 0 5C0 6.4072 0.148618 7.5 0.333484 8.28144C0.482102 8.96825 1.18894 9.46886 2.00453 9.62759C3.30222 9.84432 5.53149 10 7.98188 10C10.4323 10 12.6579 9.84432 13.9592 9.62759C14.7748 9.46886 15.478 9.00183 15.6266 8.28144C15.7753 7.5 15.9601 6.37363 16 5C15.9239 3.5928 15.739 2.5 15.5541 1.71856ZM6.54545 7.18979V2.8125L10.9091 5L6.54545 7.18979Z" fill="white"/>
</svg>
